<svg width="1200" height="630" viewBox="0 0 1200 630" xmlns="http://www.w3.org/2000/svg"><mask id="satori_om-id"><rect x="0" y="0" width="1200" height="630" fill="#fff"/></mask><rect x="0" y="0" width="1200" height="630" fill="#fff"/><mask id="satori_om-id-0"><rect x="0" y="176" width="1200" height="278" fill="#fff"/></mask><rect x="0" y="176" width="1200" height="278" fill="#f9fafb"/><mask id="satori_om-id-0-0"><rect x="0" y="176" width="1200" height="278" fill="#fff"/></mask><mask id="satori_om-id-0-0-0"><rect x="32" y="228" width="1136" height="174" fill="#fff"/></mask><mask id="satori_om-id-0-0-0-0"><rect x="32" y="228" width="1136" height="61" fill="#fff"/></mask><path fill="#111827" d="M74.3 249.7L74.3 249.7L65.0 249.7Q64.7 247.9 63.9 246.5Q63.1 245.1 61.9 244.1Q60.7 243.1 59.0 242.6Q57.4 242.0 55.6 242.0L55.6 242.0Q52.2 242.0 49.7 243.7Q47.1 245.4 45.8 248.6Q44.4 251.8 44.4 256.3L44.4 256.3Q44.4 261.0 45.8 264.1Q47.2 267.3 49.7 268.9Q52.2 270.5 55.5 270.5L55.5 270.5Q57.4 270.5 58.9 270.1Q60.5 269.6 61.8 268.6Q63.0 267.7 63.8 266.3Q64.6 264.9 65.0 263.2L65.0 263.2L74.3 263.2Q73.9 266.2 72.5 269.0Q71.1 271.8 68.6 274.0Q66.2 276.2 62.9 277.4Q59.5 278.7 55.4 278.7L55.4 278.7Q49.5 278.7 44.9 276.1Q40.3 273.4 37.7 268.4Q35.0 263.4 35.0 256.3L35.0 256.3Q35.0 249.2 37.7 244.1Q40.4 239.1 45.0 236.5Q49.6 233.9 55.4 233.9L55.4 233.9Q59.1 233.9 62.4 234.9Q65.6 236.0 68.2 238.0Q70.7 240.1 72.3 243.0Q73.8 246.0 74.3 249.7ZM89.8 259.2L89.8 259.2L89.8 278.1L80.8 278.1L80.8 234.5L89.6 234.5L89.6 251.2L90.0 251.2Q91.1 248.3 93.5 246.6Q96.0 245.0 99.7 245.0L99.7 245.0Q103.1 245.0 105.7 246.4Q108.2 247.9 109.7 250.7Q111.1 253.4 111.0 257.3L111.0 257.3L111.0 278.1L102.0 278.1L102.0 258.9Q102.0 255.9 100.4 254.2Q98.9 252.5 96.1 252.5L96.1 252.5Q94.3 252.5 92.9 253.3Q91.4 254.1 90.6 255.6Q89.8 257.1 89.8 259.2ZM133.1 278.7L133.1 278.7Q128.1 278.7 124.4 276.7Q120.8 274.6 118.8 270.9Q116.9 267.1 116.9 261.9L116.9 261.9Q116.9 256.8 118.8 253.0Q120.8 249.2 124.4 247.1Q127.9 245.0 132.8 245.0L132.8 245.0Q136.0 245.0 138.8 246.0Q141.6 247.0 143.7 249.1Q145.8 251.2 147.0 254.3Q148.1 257.4 148.1 261.6L148.1 261.6L148.1 264.1L120.5 264.1L120.5 258.4L139.6 258.4Q139.6 256.5 138.7 255.0Q137.9 253.5 136.4 252.6Q134.9 251.7 132.9 251.7L132.9 251.7Q130.8 251.7 129.3 252.7Q127.7 253.6 126.8 255.2Q125.9 256.8 125.9 258.7L125.9 258.7L125.9 264.1Q125.9 266.5 126.8 268.3Q127.7 270.1 129.3 271.0Q131.0 272.0 133.3 272.0L133.3 272.0Q134.8 272.0 136.0 271.5Q137.3 271.1 138.2 270.3Q139.1 269.4 139.6 268.2L139.6 268.2L148.0 268.7Q147.3 271.8 145.3 274.0Q143.4 276.3 140.3 277.5Q137.2 278.7 133.1 278.7ZM168.9 278.7L168.9 278.7Q163.8 278.7 160.2 276.6Q156.6 274.5 154.7 270.7Q152.7 266.8 152.7 261.9L152.7 261.9Q152.7 256.8 154.7 253.0Q156.6 249.2 160.2 247.1Q163.8 245.0 168.8 245.0L168.8 245.0Q173.1 245.0 176.3 246.5Q179.5 248.1 181.4 250.9Q183.3 253.7 183.5 257.5L183.5 257.5L174.9 257.5Q174.5 255.0 173.0 253.5Q171.5 252.0 169.0 252.0L169.0 252.0Q166.9 252.0 165.3 253.2Q163.7 254.3 162.8 256.5Q162.0 258.7 162.0 261.7L162.0 261.7Q162.0 264.9 162.8 267.1Q163.7 269.3 165.3 270.4Q166.9 271.6 169.0 271.6L169.0 271.6Q170.5 271.6 171.8 270.9Q173.0 270.3 173.8 269.1Q174.6 267.8 174.9 266.1L174.9 266.1L183.5 266.1Q183.3 269.9 181.4 272.7Q179.6 275.6 176.4 277.2Q173.2 278.7 168.9 278.7ZM203.5 261.8L197.5 268.7L197.6 257.8L198.9 257.8L209.4 245.4L219.8 245.4L205.7 261.8L203.5 261.8ZM198.4 278.1L189.3 278.1L189.3 234.5L198.4 234.5L198.4 278.1ZM220.4 278.1L209.8 278.1L200.1 263.9L206.2 257.4L220.4 278.1Z M252.9 278.7L252.9 278.7Q247.9 278.7 244.3 276.6Q240.7 274.5 238.8 270.7Q236.8 266.9 236.8 261.9L236.8 261.9Q236.8 256.8 238.8 253.0Q240.7 249.2 244.3 247.1Q247.9 245.0 252.9 245.0L252.9 245.0Q257.9 245.0 261.5 247.1Q265.1 249.2 267.1 253.0Q269.0 256.8 269.0 261.9L269.0 261.9Q269.0 266.9 267.1 270.7Q265.1 274.5 261.5 276.6Q257.9 278.7 252.9 278.7ZM253.0 271.7L253.0 271.7Q255.2 271.7 256.7 270.4Q258.2 269.1 259.0 266.9Q259.8 264.7 259.8 261.8L259.8 261.8Q259.8 259.0 259.0 256.7Q258.2 254.5 256.7 253.2Q255.2 251.9 253.0 251.9L253.0 251.9Q250.7 251.9 249.1 253.2Q247.6 254.5 246.8 256.7Q246.0 259.0 246.0 261.8L246.0 261.8Q246.0 264.7 246.8 266.9Q247.6 269.1 249.1 270.4Q250.7 271.7 253.0 271.7ZM295.9 264.2L295.9 264.2L295.9 245.4L305.0 245.4L305.0 278.1L296.3 278.1L296.3 272.2L295.9 272.2Q294.8 275.0 292.3 276.8Q289.7 278.5 286.0 278.5L286.0 278.5Q282.7 278.5 280.2 277.0Q277.8 275.6 276.4 272.8Q275.0 270.1 274.9 266.2L274.9 266.2L274.9 245.4L284.0 245.4L284.0 264.6Q284.0 267.5 285.6 269.2Q287.1 270.9 289.7 270.9L289.7 270.9Q291.3 270.9 292.8 270.1Q294.2 269.4 295.1 267.9Q295.9 266.4 295.9 264.2ZM309.9 245.4L329.7 245.4L329.7 252.2L309.9 252.2L309.9 245.4ZM314.4 269.2L314.4 237.5L323.5 237.5L323.5 268.1Q323.5 269.3 323.9 270.0Q324.3 270.7 325.0 271.0Q325.7 271.2 326.6 271.2L326.6 271.2Q327.2 271.2 327.8 271.1Q328.5 271.0 328.8 271.0L328.8 271.0L330.3 277.7Q329.6 277.9 328.3 278.2Q327.1 278.5 325.3 278.6L325.3 278.6Q322.0 278.7 319.6 277.7Q317.1 276.7 315.8 274.6Q314.4 272.5 314.4 269.2L314.4 269.2Z M358.5 278.1L349.5 278.1L349.5 245.4L358.1 245.4L358.1 251.2L358.5 251.2Q359.5 248.3 361.9 246.6Q364.3 245.0 367.6 245.0L367.6 245.0Q371.0 245.0 373.4 246.6Q375.7 248.3 376.5 251.2L376.5 251.2L376.9 251.2Q377.9 248.3 380.5 246.6Q383.1 245.0 386.7 245.0L386.7 245.0Q391.3 245.0 394.2 247.9Q397.0 250.8 397.0 256.1L397.0 256.1L397.0 278.1L388.0 278.1L388.0 257.9Q388.0 255.2 386.5 253.8Q385.1 252.4 382.9 252.4L382.9 252.4Q380.4 252.4 379.0 254.0Q377.7 255.6 377.7 258.1L377.7 258.1L377.7 278.1L368.9 278.1L368.9 257.7Q368.9 255.3 367.5 253.9Q366.1 252.4 363.9 252.4L363.9 252.4Q362.4 252.4 361.2 253.2Q360.0 253.9 359.3 255.3Q358.5 256.7 358.5 258.5L358.5 258.5L358.5 278.1ZM408.6 290.4L408.6 290.4Q406.9 290.4 405.4 290.1Q403.9 289.8 402.9 289.4L402.9 289.4L404.9 282.7Q406.5 283.2 407.8 283.2Q409.1 283.2 410.1 282.6Q411.0 282.0 411.6 280.4L411.6 280.4L412.1 279.0L400.4 245.4L409.9 245.4L416.7 269.4L417.1 269.4L423.9 245.4L433.5 245.4L420.8 281.6Q419.9 284.3 418.3 286.3Q416.7 288.2 414.4 289.3Q412.0 290.4 408.6 290.4Z M480.5 254.7L480.5 254.7L472.2 255.2Q472.0 254.2 471.3 253.3Q470.6 252.4 469.4 251.9Q468.3 251.4 466.7 251.4L466.7 251.4Q464.6 251.4 463.1 252.3Q461.7 253.2 461.7 254.6L461.7 254.6Q461.7 255.8 462.6 256.6Q463.6 257.4 465.8 257.9L465.8 257.9L471.8 259.1Q476.5 260.1 478.9 262.3Q481.2 264.4 481.2 268.0L481.2 268.0Q481.2 271.2 479.3 273.6Q477.5 276.0 474.2 277.4Q470.9 278.7 466.7 278.7L466.7 278.7Q460.2 278.7 456.3 276.0Q452.5 273.3 451.8 268.6L451.8 268.6L460.7 268.2Q461.1 270.1 462.7 271.2Q464.3 272.2 466.7 272.2L466.7 272.2Q469.1 272.2 470.5 271.3Q472.0 270.4 472.0 268.9L472.0 268.9Q472.0 267.6 471.0 266.8Q469.9 266.0 467.8 265.6L467.8 265.6L462.1 264.5Q457.3 263.5 455.0 261.2Q452.7 258.8 452.7 255.1L452.7 255.1Q452.7 252.0 454.4 249.7Q456.1 247.4 459.2 246.2Q462.4 245.0 466.6 245.0L466.6 245.0Q472.8 245.0 476.3 247.6Q479.9 250.2 480.5 254.7ZM496.0 278.1L487.0 278.1L487.0 245.4L496.0 245.4L496.0 278.1ZM491.5 241.2L491.5 241.2Q489.5 241.2 488.1 239.8Q486.6 238.5 486.6 236.6L486.6 236.6Q486.6 234.7 488.1 233.3Q489.5 232.0 491.5 232.0L491.5 232.0Q493.5 232.0 495.0 233.3Q496.4 234.7 496.4 236.6L496.4 236.6Q496.4 238.5 495.0 239.8Q493.5 241.2 491.5 241.2ZM501.0 245.4L520.7 245.4L520.7 252.2L501.0 252.2L501.0 245.4ZM505.5 269.2L505.5 237.5L514.5 237.5L514.5 268.1Q514.5 269.3 514.9 270.0Q515.3 270.7 516.0 271.0Q516.7 271.2 517.6 271.2L517.6 271.2Q518.2 271.2 518.9 271.1Q519.5 271.0 519.9 271.0L519.9 271.0L521.3 277.7Q520.6 277.9 519.4 278.2Q518.1 278.5 516.4 278.6L516.4 278.6Q513.1 278.7 510.6 277.7Q508.2 276.7 506.8 274.6Q505.4 272.5 505.5 269.2L505.5 269.2ZM541.2 278.7L541.2 278.7Q536.1 278.7 532.5 276.7Q528.9 274.6 526.9 270.9Q524.9 267.1 524.9 261.9L524.9 261.9Q524.9 256.8 526.9 253.0Q528.9 249.2 532.4 247.1Q536.0 245.0 540.8 245.0L540.8 245.0Q544.0 245.0 546.8 246.0Q549.6 247.0 551.7 249.1Q553.8 251.2 555.0 254.3Q556.2 257.4 556.2 261.6L556.2 261.6L556.2 264.1L528.6 264.1L528.6 258.4L547.6 258.4Q547.6 256.5 546.8 255.0Q545.9 253.5 544.4 252.6Q542.9 251.7 541.0 251.7L541.0 251.7Q538.9 251.7 537.3 252.7Q535.7 253.6 534.8 255.2Q533.9 256.8 533.9 258.7L533.9 258.7L533.9 264.1Q533.9 266.5 534.8 268.3Q535.7 270.1 537.4 271.0Q539.0 272.0 541.3 272.0L541.3 272.0Q542.8 272.0 544.1 271.5Q545.3 271.1 546.2 270.3Q547.1 269.4 547.6 268.2L547.6 268.2L556.0 268.7Q555.4 271.8 553.4 274.0Q551.4 276.3 548.3 277.5Q545.2 278.7 541.2 278.7Z "/><mask id="satori_om-id-0-0-0-1"><rect x="32" y="321" width="1136" height="81" fill="#fff"/></mask><path fill="#6366f1" d="M45.4 332.9L38.8 353.1L32.9 353.1L41.9 326.9L49.0 326.9L58.1 353.1L52.1 353.1L45.6 332.9L45.4 332.9ZM38.4 347.1L38.4 342.8L52.4 342.8L52.4 347.1L38.4 347.1ZM66.5 341.7L66.5 341.7L66.5 353.1L61.1 353.1L61.1 333.4L66.3 333.4L66.3 336.9L66.5 336.9Q67.2 335.2 68.7 334.2Q70.2 333.2 72.4 333.2L72.4 333.2Q74.5 333.2 76.0 334.1Q77.5 335.0 78.4 336.6Q79.2 338.3 79.2 340.6L79.2 340.6L79.2 353.1L73.8 353.1L73.8 341.6Q73.8 339.7 72.8 338.7Q71.9 337.7 70.3 337.7L70.3 337.7Q69.2 337.7 68.3 338.2Q67.5 338.7 67.0 339.6Q66.6 340.5 66.5 341.7Z M100.8 353.5L100.8 353.5Q97.7 353.5 95.6 352.2Q93.4 351.0 92.2 348.7Q91.0 346.5 91.0 343.4L91.0 343.4Q91.0 340.3 92.2 338.0Q93.4 335.7 95.5 334.5Q97.7 333.2 100.6 333.2L100.6 333.2Q102.5 333.2 104.2 333.8Q105.9 334.4 107.1 335.7Q108.4 336.9 109.1 338.8Q109.8 340.7 109.8 343.2L109.8 343.2L109.8 344.7L93.2 344.7L93.2 341.3L104.7 341.3Q104.7 340.1 104.2 339.2Q103.6 338.3 102.7 337.8Q101.8 337.3 100.7 337.3L100.7 337.3Q99.4 337.3 98.5 337.8Q97.5 338.4 97.0 339.3Q96.4 340.3 96.4 341.5L96.4 341.5L96.4 344.7Q96.4 346.1 97.0 347.2Q97.5 348.3 98.5 348.8Q99.5 349.4 100.9 349.4L100.9 349.4Q101.8 349.4 102.5 349.1Q103.3 348.9 103.8 348.4Q104.4 347.9 104.6 347.1L104.6 347.1L109.7 347.5Q109.3 349.3 108.1 350.6Q106.9 352.0 105.1 352.7Q103.2 353.5 100.8 353.5ZM122.2 353.5L122.2 353.5Q119.2 353.5 117.0 352.2Q114.9 350.9 113.7 348.6Q112.6 346.3 112.6 343.3L112.6 343.3Q112.6 340.3 113.7 338.0Q114.9 335.8 117.1 334.5Q119.2 333.2 122.2 333.2L122.2 333.2Q124.8 333.2 126.7 334.1Q128.6 335.1 129.7 336.7Q130.9 338.4 131.0 340.7L131.0 340.7L125.8 340.7Q125.6 339.2 124.7 338.3Q123.8 337.4 122.3 337.4L122.3 337.4Q121.0 337.4 120.1 338.1Q119.1 338.8 118.6 340.1Q118.1 341.4 118.1 343.3L118.1 343.3Q118.1 345.1 118.6 346.5Q119.1 347.8 120.1 348.5Q121.0 349.2 122.3 349.2L122.3 349.2Q123.2 349.2 124.0 348.8Q124.7 348.4 125.2 347.7Q125.7 346.9 125.8 345.9L125.8 345.9L131.0 345.9Q130.9 348.1 129.8 349.8Q128.7 351.5 126.8 352.5Q124.8 353.5 122.2 353.5ZM143.4 353.5L143.4 353.5Q140.4 353.5 138.2 352.2Q136.0 350.9 134.9 348.6Q133.7 346.4 133.7 343.3L133.7 343.3Q133.7 340.3 134.9 338.0Q136.0 335.7 138.2 334.5Q140.4 333.2 143.4 333.2L143.4 333.2Q146.3 333.2 148.5 334.5Q150.7 335.7 151.9 338.0Q153.0 340.3 153.0 343.3L153.0 343.3Q153.0 346.4 151.9 348.6Q150.7 350.9 148.5 352.2Q146.3 353.5 143.4 353.5ZM143.4 349.2L143.4 349.2Q144.7 349.2 145.7 348.5Q146.6 347.7 147.0 346.4Q147.5 345.0 147.5 343.3L147.5 343.3Q147.5 341.6 147.0 340.2Q146.6 338.9 145.7 338.1Q144.7 337.3 143.4 337.3L143.4 337.3Q142.0 337.3 141.1 338.1Q140.2 338.9 139.7 340.2Q139.2 341.6 139.2 343.3L139.2 343.3Q139.2 345.0 139.7 346.4Q140.2 347.7 141.1 348.5Q142.0 349.2 143.4 349.2ZM162.0 353.1L156.6 353.1L156.6 333.4L161.8 333.4L161.8 336.9L162.0 336.9Q162.6 335.2 164.0 334.2Q165.5 333.2 167.5 333.2L167.5 333.2Q169.5 333.2 170.9 334.2Q172.3 335.2 172.8 336.9L172.8 336.9L173.0 336.9Q173.6 335.2 175.2 334.2Q176.8 333.2 178.9 333.2L178.9 333.2Q181.7 333.2 183.4 334.9Q185.1 336.7 185.1 339.9L185.1 339.9L185.1 353.1L179.7 353.1L179.7 341.0Q179.7 339.3 178.8 338.5Q177.9 337.7 176.6 337.7L176.6 337.7Q175.2 337.7 174.3 338.6Q173.5 339.6 173.5 341.1L173.5 341.1L173.5 353.1L168.2 353.1L168.2 340.8Q168.2 339.4 167.4 338.5Q166.6 337.7 165.2 337.7L165.2 337.7Q164.3 337.7 163.6 338.1Q162.9 338.6 162.4 339.4Q162.0 340.2 162.0 341.3L162.0 341.3L162.0 353.1ZM194.9 353.1L189.4 353.1L189.4 333.4L194.6 333.4L194.6 336.9L194.8 336.9Q195.4 335.2 196.9 334.2Q198.3 333.2 200.3 333.2L200.3 333.2Q202.3 333.2 203.7 334.2Q205.2 335.2 205.6 336.9L205.6 336.9L205.8 336.9Q206.4 335.2 208.0 334.2Q209.6 333.2 211.8 333.2L211.8 333.2Q214.5 333.2 216.2 334.9Q217.9 336.7 217.9 339.9L217.9 339.9L217.9 353.1L212.5 353.1L212.5 341.0Q212.5 339.3 211.6 338.5Q210.8 337.7 209.5 337.7L209.5 337.7Q208.0 337.7 207.2 338.6Q206.3 339.6 206.3 341.1L206.3 341.1L206.3 353.1L201.0 353.1L201.0 340.8Q201.0 339.4 200.2 338.5Q199.4 337.7 198.1 337.7L198.1 337.7Q197.1 337.7 196.4 338.1Q195.7 338.6 195.3 339.4Q194.9 340.2 194.9 341.3L194.9 341.3L194.9 353.1ZM231.2 353.5L231.2 353.5Q228.2 353.5 226.0 352.2Q223.8 351.0 222.6 348.7Q221.4 346.5 221.4 343.4L221.4 343.4Q221.4 340.3 222.6 338.0Q223.8 335.7 225.9 334.5Q228.1 333.2 231.0 333.2L231.0 333.2Q232.9 333.2 234.6 333.8Q236.3 334.4 237.5 335.7Q238.8 336.9 239.5 338.8Q240.2 340.7 240.2 343.2L240.2 343.2L240.2 344.7L223.6 344.7L223.6 341.3L235.1 341.3Q235.1 340.1 234.6 339.2Q234.1 338.3 233.2 337.8Q232.3 337.3 231.1 337.3L231.1 337.3Q229.8 337.3 228.9 337.8Q227.9 338.4 227.4 339.3Q226.8 340.3 226.8 341.5L226.8 341.5L226.8 344.7Q226.8 346.1 227.4 347.2Q227.9 348.3 228.9 348.8Q229.9 349.4 231.3 349.4L231.3 349.4Q232.2 349.4 232.9 349.1Q233.7 348.9 234.2 348.4Q234.8 347.9 235.0 347.1L235.0 347.1L240.1 347.5Q239.7 349.3 238.5 350.6Q237.3 352.0 235.5 352.7Q233.6 353.5 231.2 353.5ZM249.2 353.1L243.8 353.1L243.8 333.4L249.0 333.4L249.0 336.9L249.2 336.9Q249.8 335.0 251.0 334.1Q252.3 333.2 254.0 333.2L254.0 333.2Q254.4 333.2 254.8 333.2Q255.3 333.3 255.7 333.4L255.7 333.4L255.7 338.2Q255.3 338.1 254.6 338.0Q253.9 337.9 253.4 337.9L253.4 337.9Q252.2 337.9 251.2 338.4Q250.3 338.9 249.7 339.9Q249.2 340.8 249.2 342.0L249.2 342.0L249.2 353.1ZM266.4 353.5L266.4 353.5Q263.4 353.5 261.2 352.2Q259.1 350.9 257.9 348.6Q256.8 346.3 256.8 343.3L256.8 343.3Q256.8 340.3 257.9 338.0Q259.1 335.8 261.3 334.5Q263.4 333.2 266.4 333.2L266.4 333.2Q269.0 333.2 270.9 334.1Q272.8 335.1 274.0 336.7Q275.1 338.4 275.2 340.7L275.2 340.7L270.1 340.7Q269.8 339.2 268.9 338.3Q268.0 337.4 266.5 337.4L266.5 337.4Q265.2 337.4 264.3 338.1Q263.3 338.8 262.8 340.1Q262.3 341.4 262.3 343.3L262.3 343.3Q262.3 345.1 262.8 346.5Q263.3 347.8 264.3 348.5Q265.2 349.2 266.5 349.2L266.5 349.2Q267.4 349.2 268.2 348.8Q268.9 348.4 269.4 347.7Q269.9 346.9 270.1 345.9L270.1 345.9L275.2 345.9Q275.1 348.1 274.0 349.8Q272.9 351.5 271.0 352.5Q269.0 353.5 266.4 353.5ZM287.6 353.5L287.6 353.5Q284.6 353.5 282.4 352.2Q280.3 351.0 279.1 348.7Q277.9 346.5 277.9 343.4L277.9 343.4Q277.9 340.3 279.1 338.0Q280.3 335.7 282.4 334.5Q284.5 333.2 287.4 333.2L287.4 333.2Q289.4 333.2 291.1 333.8Q292.7 334.4 294.0 335.7Q295.3 336.9 296.0 338.8Q296.7 340.7 296.7 343.2L296.7 343.2L296.7 344.7L280.1 344.7L280.1 341.3L291.5 341.3Q291.5 340.1 291.0 339.2Q290.5 338.3 289.6 337.8Q288.7 337.3 287.5 337.3L287.5 337.3Q286.3 337.3 285.3 337.8Q284.4 338.4 283.8 339.3Q283.3 340.3 283.3 341.5L283.3 341.5L283.3 344.7Q283.3 346.1 283.8 347.2Q284.4 348.3 285.4 348.8Q286.4 349.4 287.7 349.4L287.7 349.4Q288.6 349.4 289.4 349.1Q290.1 348.9 290.7 348.4Q291.2 347.9 291.5 347.1L291.5 347.1L296.5 347.5Q296.2 349.3 295.0 350.6Q293.8 352.0 291.9 352.7Q290.1 353.5 287.6 353.5Z M314.9 360.4L309.5 360.4L309.5 333.4L314.8 333.4L314.8 336.7L315.1 336.7Q315.4 336.0 316.1 335.1Q316.8 334.3 317.9 333.7Q319.0 333.2 320.7 333.2L320.7 333.2Q322.8 333.2 324.6 334.3Q326.5 335.4 327.5 337.7Q328.6 339.9 328.6 343.3L328.6 343.3Q328.6 346.6 327.6 348.8Q326.5 351.1 324.7 352.2Q322.9 353.4 320.7 353.4L320.7 353.4Q319.1 353.4 318.0 352.9Q316.9 352.4 316.2 351.6Q315.5 350.8 315.1 349.9L315.1 349.9L314.9 349.9L314.9 360.4ZM314.8 343.3L314.8 343.3Q314.8 345.0 315.3 346.3Q315.8 347.6 316.7 348.3Q317.6 349.1 318.9 349.1L318.9 349.1Q320.3 349.1 321.2 348.3Q322.1 347.6 322.6 346.3Q323.1 345.0 323.1 343.3L323.1 343.3Q323.1 341.6 322.6 340.3Q322.1 339.0 321.2 338.3Q320.3 337.5 318.9 337.5L318.9 337.5Q317.6 337.5 316.7 338.2Q315.8 338.9 315.3 340.2Q314.8 341.5 314.8 343.3ZM332.2 326.9L337.7 326.9L337.7 353.1L332.2 353.1L332.2 326.9ZM347.6 353.5L347.6 353.5Q345.8 353.5 344.3 352.8Q342.8 352.1 342.0 350.8Q341.1 349.5 341.1 347.6L341.1 347.6Q341.1 346.0 341.7 344.8Q342.3 343.7 343.4 343.1Q344.4 342.4 345.7 342.0Q347.0 341.7 348.5 341.6L348.5 341.6Q350.2 341.4 351.3 341.2Q352.3 341.1 352.8 340.7Q353.3 340.4 353.3 339.8L353.3 339.8L353.3 339.7Q353.3 338.5 352.5 337.8Q351.7 337.2 350.3 337.2L350.3 337.2Q348.9 337.2 348.0 337.8Q347.1 338.5 346.8 339.4L346.8 339.4L341.8 339.0Q342.2 337.2 343.3 335.9Q344.4 334.6 346.2 333.9Q348.0 333.2 350.4 333.2L350.4 333.2Q352.0 333.2 353.5 333.6Q355.0 334.0 356.2 334.8Q357.3 335.6 358.0 336.8Q358.7 338.1 358.7 339.8L358.7 339.8L358.7 353.1L353.5 353.1L353.5 350.4L353.4 350.4Q352.9 351.3 352.1 352.0Q351.3 352.7 350.2 353.1Q349.1 353.5 347.6 353.5ZM349.2 349.7L349.2 349.7Q350.4 349.7 351.3 349.2Q352.2 348.7 352.8 347.9Q353.3 347.1 353.3 346.1L353.3 346.1L353.3 344.0Q353.0 344.1 352.6 344.3Q352.2 344.4 351.6 344.5Q351.1 344.6 350.5 344.7Q350.0 344.8 349.5 344.9L349.5 344.9Q348.5 345.0 347.8 345.3Q347.1 345.6 346.7 346.1Q346.3 346.7 346.3 347.4L346.3 347.4Q346.3 348.5 347.1 349.1Q347.9 349.7 349.2 349.7ZM361.5 333.4L373.4 333.4L373.4 337.5L361.5 337.5L361.5 333.4ZM364.2 347.8L364.2 328.7L369.7 328.7L369.7 347.0Q369.7 347.8 369.9 348.2Q370.1 348.6 370.6 348.8Q371.0 349.0 371.5 349.0L371.5 349.0Q371.9 349.0 372.3 348.9Q372.7 348.8 372.9 348.8L372.9 348.8L373.7 352.8Q373.3 353.0 372.6 353.1Q371.8 353.3 370.8 353.4L370.8 353.4Q368.8 353.4 367.3 352.8Q365.9 352.2 365.0 351.0Q364.2 349.7 364.2 347.8L364.2 347.8ZM375.4 333.4L387.5 333.4L387.5 337.5L375.4 337.5L375.4 333.4ZM383.6 353.1L378.1 353.1L378.1 332.0Q378.1 329.9 379.0 328.5Q379.8 327.1 381.3 326.4Q382.7 325.7 384.6 325.7L384.6 325.7Q385.8 325.7 386.9 325.9Q387.9 326.1 388.4 326.2L388.4 326.2L387.4 330.3Q387.1 330.2 386.7 330.1Q386.2 330.0 385.7 330.0L385.7 330.0Q384.5 330.0 384.0 330.6Q383.6 331.1 383.6 332.1L383.6 332.1L383.6 353.1ZM399.0 353.5L399.0 353.5Q396.0 353.5 393.8 352.2Q391.7 350.9 390.5 348.6Q389.3 346.4 389.3 343.3L389.3 343.3Q389.3 340.3 390.5 338.0Q391.7 335.7 393.8 334.5Q396.0 333.2 399.0 333.2L399.0 333.2Q402.0 333.2 404.1 334.5Q406.3 335.7 407.5 338.0Q408.6 340.3 408.6 343.3L408.6 343.3Q408.6 346.4 407.5 348.6Q406.3 350.9 404.1 352.2Q402.0 353.5 399.0 353.5ZM399.0 349.2L399.0 349.2Q400.4 349.2 401.3 348.5Q402.2 347.7 402.6 346.4Q403.1 345.0 403.1 343.3L403.1 343.3Q403.1 341.6 402.6 340.2Q402.2 338.9 401.3 338.1Q400.4 337.3 399.0 337.3L399.0 337.3Q397.6 337.3 396.7 338.1Q395.8 338.9 395.3 340.2Q394.9 341.6 394.9 343.3L394.9 343.3Q394.9 345.0 395.3 346.4Q395.8 347.7 396.7 348.5Q397.6 349.2 399.0 349.2ZM417.6 353.1L412.2 353.1L412.2 333.4L417.5 333.4L417.5 336.9L417.7 336.9Q418.2 335.0 419.5 334.1Q420.8 333.2 422.4 333.2L422.4 333.2Q422.8 333.2 423.3 333.2Q423.8 333.3 424.1 333.4L424.1 333.4L424.1 338.2Q423.7 338.1 423.1 338.0Q422.4 337.9 421.8 337.9L421.8 337.9Q420.6 337.9 419.7 338.4Q418.7 338.9 418.2 339.9Q417.6 340.8 417.6 342.0L417.6 342.0L417.6 353.1ZM432.4 353.1L426.9 353.1L426.9 333.4L432.1 333.4L432.1 336.9L432.3 336.9Q432.9 335.2 434.4 334.2Q435.8 333.2 437.8 333.2L437.8 333.2Q439.8 333.2 441.2 334.2Q442.7 335.2 443.1 336.9L443.1 336.9L443.3 336.9Q443.9 335.2 445.5 334.2Q447.1 333.2 449.3 333.2L449.3 333.2Q452.0 333.2 453.7 334.9Q455.4 336.7 455.4 339.9L455.4 339.9L455.4 353.1L450.0 353.1L450.0 341.0Q450.0 339.3 449.1 338.5Q448.3 337.7 447.0 337.7L447.0 337.7Q445.5 337.7 444.7 338.6Q443.8 339.6 443.8 341.1L443.8 341.1L443.8 353.1L438.5 353.1L438.5 340.8Q438.5 339.4 437.7 338.5Q436.9 337.7 435.6 337.7L435.6 337.7Q434.6 337.7 433.9 338.1Q433.2 338.6 432.8 339.4Q432.4 340.2 432.4 341.3L432.4 341.3L432.4 353.1Z M474.3 353.1L468.9 353.1L468.9 326.9L474.3 326.9L474.3 336.7L474.5 336.7Q474.9 336.0 475.5 335.1Q476.2 334.3 477.3 333.7Q478.4 333.2 480.1 333.2L480.1 333.2Q482.2 333.2 484.0 334.3Q485.9 335.4 486.9 337.7Q488.0 339.9 488.0 343.3L488.0 343.3Q488.0 346.6 487.0 348.8Q485.9 351.1 484.1 352.2Q482.3 353.4 480.1 353.4L480.1 353.4Q478.5 353.4 477.4 352.9Q476.3 352.4 475.6 351.6Q474.9 350.8 474.5 349.9L474.5 349.9L474.3 349.9L474.3 353.1ZM474.2 343.3L474.2 343.3Q474.2 345.0 474.7 346.3Q475.2 347.6 476.1 348.3Q477.0 349.1 478.3 349.1L478.3 349.1Q479.7 349.1 480.6 348.3Q481.5 347.6 482.0 346.3Q482.5 345.0 482.5 343.3L482.5 343.3Q482.5 341.6 482.0 340.3Q481.5 339.0 480.6 338.3Q479.7 337.5 478.3 337.5L478.3 337.5Q477.0 337.5 476.1 338.2Q475.2 338.9 474.7 340.2Q474.2 341.5 474.2 343.3ZM504.2 344.7L504.2 344.7L504.2 333.4L509.7 333.4L509.7 353.1L504.5 353.1L504.5 349.5L504.3 349.5Q503.6 351.2 502.1 352.3Q500.5 353.3 498.3 353.3L498.3 353.3Q496.3 353.3 494.8 352.4Q493.3 351.5 492.5 349.9Q491.7 348.3 491.7 345.9L491.7 345.9L491.7 333.4L497.1 333.4L497.1 345.0Q497.1 346.7 498.0 347.7Q499.0 348.7 500.5 348.7L500.5 348.7Q501.5 348.7 502.3 348.3Q503.2 347.8 503.7 346.9Q504.3 346.0 504.2 344.7ZM519.5 353.1L514.0 353.1L514.0 333.4L519.5 333.4L519.5 353.1ZM516.8 330.9L516.8 330.9Q515.6 330.9 514.7 330.1Q513.8 329.3 513.8 328.2L513.8 328.2Q513.8 327.0 514.7 326.2Q515.6 325.4 516.8 325.4L516.8 325.4Q518.0 325.4 518.9 326.2Q519.7 327.0 519.7 328.2L519.7 328.2Q519.7 329.3 518.9 330.1Q518.0 330.9 516.8 330.9ZM523.8 326.9L529.3 326.9L529.3 353.1L523.8 353.1L523.8 326.9ZM532.2 333.4L544.1 333.4L544.1 337.5L532.2 337.5L532.2 333.4ZM534.9 347.8L534.9 328.7L540.4 328.7L540.4 347.0Q540.4 347.8 540.6 348.2Q540.8 348.6 541.2 348.8Q541.7 349.0 542.2 349.0L542.2 349.0Q542.6 349.0 543.0 348.9Q543.4 348.8 543.6 348.8L543.6 348.8L544.4 352.8Q544.0 353.0 543.3 353.1Q542.5 353.3 541.5 353.4L541.5 353.4Q539.5 353.4 538.0 352.8Q536.5 352.2 535.7 351.0Q534.9 349.7 534.9 347.8L534.9 347.8Z M568.5 344.7L568.5 344.7L568.5 333.4L574.0 333.4L574.0 353.1L568.8 353.1L568.8 349.5L568.6 349.5Q567.9 351.2 566.4 352.3Q564.8 353.3 562.6 353.3L562.6 353.3Q560.6 353.3 559.1 352.4Q557.6 351.5 556.8 349.9Q556.0 348.3 556.0 345.9L556.0 345.9L556.0 333.4L561.4 333.4L561.4 345.0Q561.4 346.7 562.3 347.7Q563.3 348.7 564.8 348.7L564.8 348.7Q565.8 348.7 566.6 348.3Q567.5 347.8 568.0 346.9Q568.6 346.0 568.5 344.7ZM594.7 339.0L594.7 339.0L589.7 339.4Q589.6 338.7 589.1 338.2Q588.7 337.7 588.0 337.4Q587.4 337.1 586.4 337.1L586.4 337.1Q585.1 337.1 584.3 337.6Q583.4 338.1 583.4 339.0L583.4 339.0Q583.4 339.7 584.0 340.2Q584.5 340.7 585.9 341.0L585.9 341.0L589.5 341.7Q592.3 342.3 593.7 343.6Q595.1 344.9 595.1 347.0L595.1 347.0Q595.1 348.9 594.0 350.4Q592.9 351.8 590.9 352.7Q588.9 353.5 586.4 353.5L586.4 353.5Q582.5 353.5 580.2 351.8Q577.9 350.2 577.5 347.4L577.5 347.4L582.8 347.1Q583.1 348.3 584.0 348.9Q584.9 349.5 586.4 349.5L586.4 349.5Q587.8 349.5 588.7 349.0Q589.6 348.4 589.6 347.5L589.6 347.5Q589.6 346.8 589.0 346.3Q588.4 345.8 587.1 345.6L587.1 345.6L583.7 344.9Q580.8 344.3 579.4 342.9Q578.0 341.5 578.0 339.3L578.0 339.3Q578.0 337.4 579.0 336.0Q580.1 334.7 581.9 333.9Q583.8 333.2 586.3 333.2L586.3 333.2Q590.0 333.2 592.2 334.8Q594.3 336.3 594.7 339.0ZM604.0 353.1L598.6 353.1L598.6 333.4L604.0 333.4L604.0 353.1ZM601.3 330.9L601.3 330.9Q600.1 330.9 599.2 330.1Q598.4 329.3 598.4 328.2L598.4 328.2Q598.4 327.0 599.2 326.2Q600.1 325.4 601.3 325.4L601.3 325.4Q602.5 325.4 603.4 326.2Q604.2 327.0 604.2 328.2L604.2 328.2Q604.2 329.3 603.4 330.1Q602.5 330.9 601.3 330.9ZM613.8 341.7L613.8 341.7L613.8 353.1L608.4 353.1L608.4 333.4L613.5 333.4L613.5 336.9L613.8 336.9Q614.4 335.2 616.0 334.2Q617.5 333.2 619.7 333.2L619.7 333.2Q621.7 333.2 623.3 334.1Q624.8 335.0 625.6 336.6Q626.5 338.3 626.5 340.6L626.5 340.6L626.5 353.1L621.0 353.1L621.0 341.6Q621.0 339.7 620.1 338.7Q619.2 337.7 617.5 337.7L617.5 337.7Q616.4 337.7 615.6 338.2Q614.8 338.7 614.3 339.6Q613.8 340.5 613.8 341.7ZM639.6 360.9L639.6 360.9Q636.9 360.9 635.1 360.1Q633.2 359.4 632.1 358.2Q630.9 356.9 630.6 355.4L630.6 355.4L635.7 354.7Q635.9 355.3 636.4 355.8Q636.9 356.3 637.7 356.6Q638.5 356.9 639.7 356.9L639.7 356.9Q641.5 356.9 642.7 356.1Q643.8 355.2 643.8 353.2L643.8 353.2L643.8 349.6L643.6 349.6Q643.2 350.4 642.5 351.2Q641.8 351.9 640.7 352.3Q639.5 352.8 638.0 352.8L638.0 352.8Q635.8 352.8 634.0 351.8Q632.1 350.7 631.1 348.6Q630.0 346.5 630.0 343.2L630.0 343.2Q630.0 339.9 631.1 337.7Q632.2 335.4 634.0 334.3Q635.8 333.2 638.0 333.2L638.0 333.2Q639.6 333.2 640.7 333.7Q641.8 334.3 642.5 335.1Q643.2 336.0 643.6 336.7L643.6 336.7L643.8 336.7L643.8 333.4L649.2 333.4L649.2 353.3Q649.2 355.8 648.0 357.5Q646.7 359.2 644.6 360.0Q642.4 360.9 639.6 360.9ZM639.7 348.7L639.7 348.7Q641.0 348.7 641.9 348.1Q642.8 347.4 643.3 346.2Q643.8 344.9 643.8 343.2L643.8 343.2Q643.8 341.5 643.3 340.2Q642.9 338.9 641.9 338.2Q641.0 337.5 639.7 337.5L639.7 337.5Q638.4 337.5 637.4 338.2Q636.5 339.0 636.0 340.2Q635.6 341.5 635.6 343.2L635.6 343.2Q635.6 344.9 636.1 346.1Q636.5 347.4 637.4 348.0Q638.4 348.7 639.7 348.7Z M678.4 326.9L683.9 326.9L683.9 353.1L679.1 353.1L667.7 336.6L667.5 336.6L667.5 353.1L662.0 353.1L662.0 326.9L666.8 326.9L678.1 343.4L678.4 343.4L678.4 326.9ZM697.3 353.5L697.3 353.5Q694.3 353.5 692.1 352.2Q689.9 351.0 688.7 348.7Q687.6 346.5 687.6 343.4L687.6 343.4Q687.6 340.3 688.7 338.0Q689.9 335.7 692.0 334.5Q694.2 333.2 697.1 333.2L697.1 333.2Q699.0 333.2 700.7 333.8Q702.4 334.4 703.6 335.7Q704.9 336.9 705.6 338.8Q706.3 340.7 706.3 343.2L706.3 343.2L706.3 344.7L689.7 344.7L689.7 341.3L701.2 341.3Q701.2 340.1 700.7 339.2Q700.2 338.3 699.3 337.8Q698.4 337.3 697.2 337.3L697.2 337.3Q695.9 337.3 695.0 337.8Q694.0 338.4 693.5 339.3Q693.0 340.3 692.9 341.5L692.9 341.5L692.9 344.7Q692.9 346.1 693.5 347.2Q694.0 348.3 695.0 348.8Q696.0 349.4 697.4 349.4L697.4 349.4Q698.3 349.4 699.0 349.1Q699.8 348.9 700.3 348.4Q700.9 347.9 701.2 347.1L701.2 347.1L706.2 347.5Q705.8 349.3 704.6 350.6Q703.4 352.0 701.6 352.7Q699.7 353.5 697.3 353.5ZM708.5 333.4L714.1 333.4L717.7 340.3L721.4 333.4L727.0 333.4L721.3 343.3L727.1 353.1L721.6 353.1L717.7 346.3L713.9 353.1L708.3 353.1L714.1 343.3L708.5 333.4ZM728.8 333.4L740.6 333.4L740.6 337.5L728.8 337.5L728.8 333.4ZM731.5 347.8L731.5 328.7L736.9 328.7L736.9 347.0Q736.9 347.8 737.2 348.2Q737.4 348.6 737.8 348.8Q738.2 349.0 738.8 349.0L738.8 349.0Q739.2 349.0 739.5 348.9Q739.9 348.8 740.1 348.8L740.1 348.8L741.0 352.8Q740.6 353.0 739.8 353.1Q739.1 353.3 738.0 353.4L738.0 353.4Q736.1 353.4 734.6 352.8Q733.1 352.2 732.3 351.0Q731.5 349.7 731.5 347.8L731.5 347.8ZM744.2 354.0L744.2 333.4L749.6 333.4L749.6 354.1Q749.6 356.3 748.7 357.7Q747.8 359.1 746.2 359.8Q744.5 360.4 742.2 360.4L742.2 360.4Q741.9 360.4 741.6 360.4Q741.4 360.4 741.1 360.4L741.1 360.4L741.1 356.2Q741.3 356.2 741.5 356.2Q741.6 356.2 741.8 356.2L741.8 356.2Q743.1 356.2 743.6 355.6Q744.2 355.1 744.2 354.0L744.2 354.0ZM746.9 330.9L746.9 330.9Q745.7 330.9 744.8 330.1Q743.9 329.3 743.9 328.2L743.9 328.2Q743.9 327.0 744.8 326.2Q745.7 325.4 746.9 325.4L746.9 325.4Q748.1 325.4 749.0 326.2Q749.8 327.0 749.8 328.2L749.8 328.2Q749.8 329.3 749.0 330.1Q748.1 330.9 746.9 330.9ZM770.3 339.0L770.3 339.0L765.3 339.4Q765.2 338.7 764.8 338.2Q764.3 337.7 763.7 337.4Q763.0 337.1 762.0 337.1L762.0 337.1Q760.8 337.1 759.9 337.6Q759.0 338.1 759.0 339.0L759.0 339.0Q759.0 339.7 759.6 340.2Q760.2 340.7 761.5 341.0L761.5 341.0L765.1 341.7Q767.9 342.3 769.3 343.6Q770.8 344.9 770.8 347.0L770.8 347.0Q770.8 348.9 769.6 350.4Q768.5 351.8 766.5 352.7Q764.6 353.5 762.0 353.5L762.0 353.5Q758.1 353.5 755.8 351.8Q753.5 350.2 753.1 347.4L753.1 347.4L758.5 347.1Q758.7 348.3 759.6 348.9Q760.6 349.5 762.0 349.5L762.0 349.5Q763.5 349.5 764.3 349.0Q765.2 348.4 765.2 347.5L765.2 347.5Q765.2 346.8 764.6 346.3Q764.0 345.8 762.7 345.6L762.7 345.6L759.3 344.9Q756.4 344.3 755.0 342.9Q753.6 341.5 753.6 339.3L753.6 339.3Q753.6 337.4 754.7 336.0Q755.7 334.7 757.6 333.9Q759.4 333.2 761.9 333.2L761.9 333.2Q765.7 333.2 767.8 334.8Q769.9 336.3 770.3 339.0ZM775.6 349.5L780.1 349.5L780.0 350.9Q779.8 352.6 779.3 354.3Q778.9 356.0 778.4 357.3Q777.9 358.7 777.6 359.5L777.6 359.5L774.0 359.5Q774.2 358.7 774.6 357.4Q774.9 356.0 775.2 354.3Q775.5 352.7 775.5 350.9L775.5 350.9L775.6 349.5Z M799.4 353.1L793.9 353.1L793.9 326.9L804.2 326.9Q807.2 326.9 809.3 328.0Q811.4 329.0 812.5 330.9Q813.6 332.9 813.6 335.5L813.6 335.5Q813.6 338.1 812.5 339.9Q811.3 341.8 809.2 342.8Q807.1 343.8 804.1 343.8L804.1 343.8L797.2 343.8L797.2 339.4L803.2 339.4Q804.8 339.4 805.8 338.9Q806.9 338.5 807.4 337.6Q807.9 336.7 807.9 335.5L807.9 335.5Q807.9 334.1 807.4 333.3Q806.9 332.4 805.8 331.9Q804.7 331.4 803.1 331.4L803.1 331.4L799.4 331.4L799.4 353.1ZM802.0 341.2L808.0 341.2L814.5 353.1L808.4 353.1L802.0 341.2ZM826.0 353.5L826.0 353.5Q823.0 353.5 820.8 352.2Q818.6 351.0 817.5 348.7Q816.3 346.5 816.3 343.4L816.3 343.4Q816.3 340.3 817.5 338.0Q818.6 335.7 820.8 334.5Q822.9 333.2 825.8 333.2L825.8 333.2Q827.7 333.2 829.4 333.8Q831.1 334.4 832.4 335.7Q833.6 336.9 834.3 338.8Q835.0 340.7 835.0 343.2L835.0 343.2L835.0 344.7L818.5 344.7L818.5 341.3L829.9 341.3Q829.9 340.1 829.4 339.2Q828.9 338.3 828.0 337.8Q827.1 337.3 825.9 337.3L825.9 337.3Q824.7 337.3 823.7 337.8Q822.7 338.4 822.2 339.3Q821.7 340.3 821.7 341.5L821.7 341.5L821.7 344.7Q821.7 346.1 822.2 347.2Q822.7 348.3 823.7 348.8Q824.7 349.4 826.1 349.4L826.1 349.4Q827.0 349.4 827.8 349.1Q828.5 348.9 829.1 348.4Q829.6 347.9 829.9 347.1L829.9 347.1L834.9 347.5Q834.5 349.3 833.4 350.6Q832.2 352.0 830.3 352.7Q828.4 353.5 826.0 353.5ZM844.2 353.5L844.2 353.5Q842.3 353.5 840.8 352.8Q839.4 352.1 838.5 350.8Q837.7 349.5 837.7 347.6L837.7 347.6Q837.7 346.0 838.3 344.8Q838.9 343.7 839.9 343.1Q840.9 342.4 842.3 342.0Q843.6 341.7 845.0 341.6L845.0 341.6Q846.8 341.4 847.8 341.2Q848.9 341.1 849.3 340.7Q849.8 340.4 849.8 339.8L849.8 339.8L849.8 339.7Q849.8 338.5 849.0 337.8Q848.3 337.2 846.9 337.2L846.9 337.2Q845.4 337.2 844.5 337.8Q843.7 338.5 843.4 339.4L843.4 339.4L838.4 339.0Q838.7 337.2 839.9 335.9Q841.0 334.6 842.8 333.9Q844.6 333.2 846.9 333.2L846.9 333.2Q848.5 333.2 850.0 333.6Q851.5 334.0 852.7 334.8Q853.9 335.6 854.6 336.8Q855.2 338.1 855.2 339.8L855.2 339.8L855.2 353.1L850.1 353.1L850.1 350.4L849.9 350.4Q849.5 351.3 848.7 352.0Q847.9 352.7 846.8 353.1Q845.6 353.5 844.2 353.5ZM845.7 349.7L845.7 349.7Q846.9 349.7 847.9 349.2Q848.8 348.7 849.3 347.9Q849.8 347.1 849.8 346.1L849.8 346.1L849.8 344.0Q849.6 344.1 849.1 344.3Q848.7 344.4 848.1 344.5Q847.6 344.6 847.0 344.7Q846.5 344.8 846.1 344.9L846.1 344.9Q845.1 345.0 844.4 345.3Q843.7 345.6 843.3 346.1Q842.9 346.7 842.9 347.4L842.9 347.4Q842.9 348.5 843.7 349.1Q844.5 349.7 845.7 349.7ZM868.3 353.5L868.3 353.5Q865.3 353.5 863.2 352.2Q861.0 350.9 859.8 348.6Q858.7 346.3 858.7 343.3L858.7 343.3Q858.7 340.3 859.9 338.0Q861.0 335.8 863.2 334.5Q865.3 333.2 868.3 333.2L868.3 333.2Q870.9 333.2 872.8 334.1Q874.8 335.1 875.9 336.7Q877.0 338.4 877.1 340.7L877.1 340.7L872.0 340.7Q871.8 339.2 870.8 338.3Q869.9 337.4 868.4 337.4L868.4 337.4Q867.1 337.4 866.2 338.1Q865.3 338.8 864.7 340.1Q864.2 341.4 864.2 343.3L864.2 343.3Q864.2 345.1 864.7 346.5Q865.3 347.8 866.2 348.5Q867.1 349.2 868.4 349.2L868.4 349.2Q869.3 349.2 870.1 348.8Q870.8 348.4 871.3 347.7Q871.8 346.9 872.0 345.9L872.0 345.9L877.1 345.9Q877.0 348.1 875.9 349.8Q874.8 351.5 872.9 352.5Q871.0 353.5 868.3 353.5ZM879.2 333.4L891.1 333.4L891.1 337.5L879.2 337.5L879.2 333.4ZM881.9 347.8L881.9 328.7L887.4 328.7L887.4 347.0Q887.4 347.8 887.6 348.2Q887.8 348.6 888.2 348.8Q888.7 349.0 889.2 349.0L889.2 349.0Q889.6 349.0 890.0 348.9Q890.4 348.8 890.6 348.8L890.6 348.8L891.4 352.8Q891.0 353.0 890.3 353.1Q889.5 353.3 888.5 353.4L888.5 353.4Q886.5 353.4 885.0 352.8Q883.5 352.2 882.7 351.0Q881.9 349.7 881.9 347.8L881.9 347.8ZM896.0 349.5L900.5 349.5L900.4 350.9Q900.2 352.6 899.8 354.3Q899.3 356.0 898.8 357.3Q898.3 358.7 898.0 359.5L898.0 359.5L894.4 359.5Q894.6 358.7 895.0 357.4Q895.3 356.0 895.6 354.3Q895.9 352.7 896.0 350.9L896.0 350.9L896.0 349.5Z M921.3 331.5L913.3 331.5L913.3 326.9L934.8 326.9L934.8 331.5L926.8 331.5L926.8 353.1L921.3 353.1L921.3 331.5ZM939.4 360.4L939.4 360.4Q938.3 360.4 937.4 360.3Q936.5 360.1 935.9 359.9L935.9 359.9L937.2 355.8Q938.1 356.1 938.9 356.1Q939.7 356.2 940.2 355.8Q940.8 355.4 941.2 354.5L941.2 354.5L941.5 353.6L934.4 333.4L940.2 333.4L944.2 347.9L944.4 347.9L948.5 333.4L954.3 333.4L946.7 355.2Q946.1 356.8 945.2 358.0Q944.2 359.2 942.8 359.8Q941.4 360.4 939.4 360.4ZM962.5 360.4L957.1 360.4L957.1 333.4L962.5 333.4L962.5 336.7L962.7 336.7Q963.1 336.0 963.7 335.1Q964.4 334.3 965.5 333.7Q966.6 333.2 968.3 333.2L968.3 333.2Q970.4 333.2 972.3 334.3Q974.1 335.4 975.2 337.7Q976.2 339.9 976.2 343.3L976.2 343.3Q976.2 346.6 975.2 348.8Q974.1 351.1 972.3 352.2Q970.5 353.4 968.3 353.4L968.3 353.4Q966.7 353.4 965.6 352.9Q964.5 352.4 963.8 351.6Q963.1 350.8 962.7 349.9L962.7 349.9L962.5 349.9L962.5 360.4ZM962.4 343.3L962.4 343.3Q962.4 345.0 962.9 346.3Q963.4 347.6 964.3 348.3Q965.2 349.1 966.6 349.1L966.6 349.1Q967.9 349.1 968.8 348.3Q969.7 347.6 970.2 346.3Q970.7 345.0 970.7 343.3L970.7 343.3Q970.7 341.6 970.2 340.3Q969.7 339.0 968.8 338.3Q967.9 337.5 966.6 337.5L966.6 337.5Q965.2 337.5 964.3 338.2Q963.4 338.9 962.9 340.2Q962.4 341.5 962.4 343.3ZM988.8 353.5L988.8 353.5Q985.8 353.5 983.6 352.2Q981.4 351.0 980.2 348.7Q979.1 346.5 979.1 343.4L979.1 343.4Q979.1 340.3 980.2 338.0Q981.4 335.7 983.6 334.5Q985.7 333.2 988.6 333.2L988.6 333.2Q990.5 333.2 992.2 333.8Q993.9 334.4 995.2 335.7Q996.4 336.9 997.1 338.8Q997.8 340.7 997.8 343.2L997.8 343.2L997.8 344.7L981.2 344.7L981.2 341.3L992.7 341.3Q992.7 340.1 992.2 339.2Q991.7 338.3 990.8 337.8Q989.9 337.3 988.7 337.3L988.7 337.3Q987.4 337.3 986.5 337.8Q985.5 338.4 985.0 339.3Q984.5 340.3 984.5 341.5L984.5 341.5L984.5 344.7Q984.5 346.1 985.0 347.2Q985.5 348.3 986.5 348.8Q987.5 349.4 988.9 349.4L988.9 349.4Q989.8 349.4 990.6 349.1Q991.3 348.9 991.9 348.4Q992.4 347.9 992.7 347.1L992.7 347.1L997.7 347.5Q997.3 349.3 996.1 350.6Q995.0 352.0 993.1 352.7Q991.2 353.5 988.8 353.5ZM1021.0 334.4L1015.7 334.4Q1015.5 332.9 1014.4 332.0Q1013.2 331.2 1011.2 331.2L1011.2 331.2Q1009.9 331.2 1008.9 331.5Q1008.0 331.9 1007.5 332.6Q1007.0 333.3 1007.0 334.1L1007.0 334.1Q1007.0 334.8 1007.3 335.3Q1007.6 335.8 1008.2 336.2Q1008.8 336.6 1009.5 336.9Q1010.3 337.2 1011.1 337.3L1011.1 337.3L1013.5 337.9Q1015.2 338.3 1016.6 338.9Q1018.1 339.6 1019.1 340.5Q1020.2 341.4 1020.8 342.7Q1021.3 344.0 1021.3 345.6L1021.3 345.6Q1021.3 348.0 1020.1 349.8Q1018.9 351.5 1016.6 352.5Q1014.4 353.5 1011.2 353.5L1011.2 353.5Q1008.0 353.5 1005.7 352.5Q1003.3 351.5 1002.0 349.6Q1000.7 347.7 1000.6 344.9L1000.6 344.9L1006.0 344.9Q1006.1 346.2 1006.8 347.1Q1007.4 347.9 1008.6 348.4Q1009.7 348.8 1011.1 348.8L1011.1 348.8Q1012.5 348.8 1013.6 348.4Q1014.6 348.0 1015.2 347.3Q1015.8 346.5 1015.8 345.6L1015.8 345.6Q1015.8 344.7 1015.2 344.1Q1014.7 343.5 1013.7 343.1Q1012.7 342.7 1011.3 342.3L1011.3 342.3L1008.5 341.6Q1005.2 340.8 1003.2 339.1Q1001.3 337.4 1001.3 334.5L1001.3 334.5Q1001.3 332.1 1002.6 330.3Q1003.9 328.5 1006.1 327.5Q1008.4 326.5 1011.2 326.5L1011.2 326.5Q1014.2 326.5 1016.3 327.5Q1018.5 328.5 1019.7 330.3Q1021.0 332.1 1021.0 334.4L1021.0 334.4ZM1033.8 353.5L1033.8 353.5Q1030.8 353.5 1028.6 352.2Q1026.5 350.9 1025.3 348.6Q1024.2 346.3 1024.2 343.3L1024.2 343.3Q1024.2 340.3 1025.3 338.0Q1026.5 335.8 1028.7 334.5Q1030.8 333.2 1033.8 333.2L1033.8 333.2Q1036.4 333.2 1038.3 334.1Q1040.2 335.1 1041.4 336.7Q1042.5 338.4 1042.6 340.7L1042.6 340.7L1037.5 340.7Q1037.2 339.2 1036.3 338.3Q1035.4 337.4 1033.9 337.4L1033.9 337.4Q1032.6 337.4 1031.7 338.1Q1030.7 338.8 1030.2 340.1Q1029.7 341.4 1029.7 343.3L1029.7 343.3Q1029.7 345.1 1030.2 346.5Q1030.7 347.8 1031.7 348.5Q1032.6 349.2 1033.9 349.2L1033.9 349.2Q1034.8 349.2 1035.6 348.8Q1036.3 348.4 1036.8 347.7Q1037.3 346.9 1037.5 345.9L1037.5 345.9L1042.6 345.9Q1042.5 348.1 1041.4 349.8Q1040.3 351.5 1038.4 352.5Q1036.4 353.5 1033.8 353.5ZM1051.5 353.1L1046.1 353.1L1046.1 333.4L1051.4 333.4L1051.4 336.9L1051.6 336.9Q1052.1 335.0 1053.4 334.1Q1054.7 333.2 1056.3 333.2L1056.3 333.2Q1056.7 333.2 1057.2 333.2Q1057.7 333.3 1058.0 333.4L1058.0 333.4L1058.0 338.2Q1057.6 338.1 1057.0 338.0Q1056.3 337.9 1055.7 337.9L1055.7 337.9Q1054.5 337.9 1053.6 338.4Q1052.6 338.9 1052.1 339.9Q1051.5 340.8 1051.5 342.0L1051.5 342.0L1051.5 353.1ZM1066.3 353.1L1060.8 353.1L1060.8 333.4L1066.3 333.4L1066.3 353.1ZM1063.5 330.9L1063.5 330.9Q1062.3 330.9 1061.5 330.1Q1060.6 329.3 1060.6 328.2L1060.6 328.2Q1060.6 327.0 1061.5 326.2Q1062.3 325.4 1063.5 325.4L1063.5 325.4Q1064.8 325.4 1065.6 326.2Q1066.5 327.0 1066.5 328.2L1066.5 328.2Q1066.5 329.3 1065.6 330.1Q1064.8 330.9 1063.5 330.9ZM1076.1 360.4L1070.6 360.4L1070.6 333.4L1076.0 333.4L1076.0 336.7L1076.2 336.7Q1076.6 336.0 1077.3 335.1Q1077.9 334.3 1079.0 333.7Q1080.2 333.2 1081.8 333.2L1081.8 333.2Q1084.0 333.2 1085.8 334.3Q1087.6 335.4 1088.7 337.7Q1089.8 339.9 1089.8 343.3L1089.8 343.3Q1089.8 346.6 1088.7 348.8Q1087.6 351.1 1085.8 352.2Q1084.0 353.4 1081.8 353.4L1081.8 353.4Q1080.2 353.4 1079.1 352.9Q1078.0 352.4 1077.3 351.6Q1076.6 350.8 1076.2 349.9L1076.2 349.9L1076.1 349.9L1076.1 360.4ZM1075.9 343.3L1075.9 343.3Q1075.9 345.0 1076.4 346.3Q1076.9 347.6 1077.8 348.3Q1078.7 349.1 1080.1 349.1L1080.1 349.1Q1081.4 349.1 1082.3 348.3Q1083.2 347.6 1083.7 346.3Q1084.2 345.0 1084.2 343.3L1084.2 343.3Q1084.2 341.6 1083.7 340.3Q1083.2 339.0 1082.3 338.3Q1081.4 337.5 1080.1 337.5L1080.1 337.5Q1078.7 337.5 1077.8 338.2Q1076.9 338.9 1076.4 340.2Q1075.9 341.5 1075.9 343.3ZM1092.0 333.4L1103.8 333.4L1103.8 337.5L1092.0 337.5L1092.0 333.4ZM1094.7 347.8L1094.7 328.7L1100.1 328.7L1100.1 347.0Q1100.1 347.8 1100.4 348.2Q1100.6 348.6 1101.0 348.8Q1101.4 349.0 1102.0 349.0L1102.0 349.0Q1102.3 349.0 1102.7 348.9Q1103.1 348.8 1103.3 348.8L1103.3 348.8L1104.2 352.8Q1103.8 353.0 1103.0 353.1Q1102.3 353.3 1101.2 353.4L1101.2 353.4Q1099.3 353.4 1097.8 352.8Q1096.3 352.2 1095.5 351.0Q1094.7 349.7 1094.7 347.8L1094.7 347.8ZM1108.8 349.5L1113.3 349.5L1113.1 350.9Q1113.0 352.6 1112.5 354.3Q1112.0 356.0 1111.5 357.3Q1111.0 358.7 1110.7 359.5L1110.7 359.5L1107.2 359.5Q1107.4 358.7 1107.7 357.4Q1108.0 356.0 1108.3 354.3Q1108.6 352.7 1108.7 350.9L1108.7 350.9L1108.8 349.5Z M39.8 393.4L34.3 393.4L34.3 367.2L44.6 367.2Q47.6 367.2 49.7 368.4Q51.8 369.5 52.9 371.5Q54.0 373.5 54.0 376.1L54.0 376.1Q54.0 378.7 52.9 380.7Q51.7 382.7 49.6 383.8Q47.5 384.9 44.5 384.9L44.5 384.9L37.9 384.9L37.9 380.5L43.6 380.5Q45.2 380.5 46.2 379.9Q47.3 379.4 47.8 378.4Q48.3 377.4 48.3 376.1L48.3 376.1Q48.3 374.8 47.8 373.8Q47.3 372.9 46.2 372.3Q45.2 371.8 43.5 371.8L43.5 371.8L39.8 371.8L39.8 393.4ZM62.9 393.4L57.5 393.4L57.5 373.8L62.8 373.8L62.8 377.2L63.0 377.2Q63.5 375.4 64.8 374.4Q66.0 373.5 67.7 373.5L67.7 373.5Q68.1 373.5 68.6 373.6Q69.0 373.6 69.4 373.7L69.4 373.7L69.4 378.5Q69.0 378.4 68.3 378.3Q67.7 378.2 67.1 378.2L67.1 378.2Q65.9 378.2 65.0 378.8Q64.0 379.3 63.5 380.2Q62.9 381.1 62.9 382.3L62.9 382.3L62.9 393.4ZM77.7 393.4L72.2 393.4L72.2 373.8L77.7 373.8L77.7 393.4ZM74.9 371.3L74.9 371.3Q73.7 371.3 72.9 370.4Q72.0 369.6 72.0 368.5L72.0 368.5Q72.0 367.4 72.9 366.6Q73.7 365.7 74.9 365.7L74.9 365.7Q76.2 365.7 77.0 366.6Q77.9 367.4 77.9 368.5L77.9 368.5Q77.9 369.6 77.0 370.4Q76.2 371.3 74.9 371.3ZM98.3 379.4L98.3 379.4L93.4 379.7Q93.2 379.1 92.8 378.5Q92.4 378.0 91.7 377.7Q91.0 377.4 90.1 377.4L90.1 377.4Q88.8 377.4 87.9 377.9Q87.1 378.5 87.1 379.3L87.1 379.3Q87.1 380.0 87.6 380.5Q88.2 381.0 89.6 381.3L89.6 381.3L93.1 382.0Q96.0 382.6 97.4 383.9Q98.8 385.2 98.8 387.3L98.8 387.3Q98.8 389.3 97.7 390.7Q96.5 392.2 94.6 393.0Q92.6 393.8 90.0 393.8L90.0 393.8Q86.1 393.8 83.8 392.2Q81.5 390.5 81.1 387.7L81.1 387.7L86.5 387.5Q86.7 388.6 87.7 389.3Q88.6 389.9 90.1 389.9L90.1 389.9Q91.5 389.9 92.4 389.3Q93.2 388.8 93.2 387.9L93.2 387.9Q93.2 387.1 92.6 386.7Q92.0 386.2 90.7 385.9L90.7 385.9L87.3 385.3Q84.5 384.7 83.1 383.3Q81.7 381.8 81.7 379.6L81.7 379.6Q81.7 377.8 82.7 376.4Q83.7 375.0 85.6 374.3Q87.5 373.5 90.0 373.5L90.0 373.5Q93.7 373.5 95.8 375.1Q98.0 376.7 98.3 379.4ZM107.7 393.4L102.2 393.4L102.2 373.8L107.4 373.8L107.4 377.3L107.6 377.3Q108.3 375.5 109.7 374.5Q111.1 373.5 113.1 373.5L113.1 373.5Q115.1 373.5 116.6 374.5Q118.0 375.5 118.4 377.3L118.4 377.3L118.7 377.3Q119.3 375.6 120.8 374.5Q122.4 373.5 124.6 373.5L124.6 373.5Q127.3 373.5 129.0 375.3Q130.8 377.0 130.8 380.2L130.8 380.2L130.8 393.4L125.3 393.4L125.3 381.3Q125.3 379.7 124.5 378.8Q123.6 378.0 122.3 378.0L122.3 378.0Q120.8 378.0 120.0 379.0Q119.1 379.9 119.1 381.4L119.1 381.4L119.1 393.4L113.9 393.4L113.9 381.2Q113.9 379.7 113.0 378.9Q112.2 378.0 110.9 378.0L110.9 378.0Q110.0 378.0 109.2 378.5Q108.5 378.9 108.1 379.7Q107.7 380.5 107.7 381.6L107.7 381.6L107.7 393.4ZM140.7 393.8L140.7 393.8Q138.8 393.8 137.3 393.1Q135.8 392.5 135.0 391.2Q134.1 389.9 134.1 387.9L134.1 387.9Q134.1 386.3 134.7 385.2Q135.3 384.1 136.4 383.4Q137.4 382.7 138.7 382.4Q140.1 382.0 141.5 381.9L141.5 381.9Q143.2 381.7 144.3 381.6Q145.3 381.4 145.8 381.1Q146.3 380.8 146.3 380.1L146.3 380.1L146.3 380.1Q146.3 378.8 145.5 378.2Q144.7 377.5 143.3 377.5L143.3 377.5Q141.9 377.5 141.0 378.2Q140.1 378.8 139.9 379.8L139.9 379.8L134.8 379.4Q135.2 377.6 136.3 376.3Q137.5 375.0 139.2 374.2Q141.0 373.5 143.4 373.5L143.4 373.5Q145.0 373.5 146.5 373.9Q148.0 374.3 149.2 375.1Q150.4 375.9 151.0 377.2Q151.7 378.4 151.7 380.2L151.7 380.2L151.7 393.4L146.5 393.4L146.5 390.7L146.4 390.7Q145.9 391.6 145.1 392.3Q144.3 393.0 143.2 393.4Q142.1 393.8 140.7 393.8ZM142.2 390.0L142.2 390.0Q143.4 390.0 144.3 389.6Q145.3 389.1 145.8 388.3Q146.3 387.4 146.3 386.4L146.3 386.4L146.3 384.3Q146.0 384.5 145.6 384.6Q145.2 384.8 144.6 384.9Q144.1 385.0 143.5 385.1Q143.0 385.1 142.5 385.2L142.5 385.2Q141.6 385.3 140.8 385.7Q140.1 386.0 139.7 386.5Q139.3 387.0 139.3 387.8L139.3 387.8Q139.3 388.9 140.1 389.5Q141.0 390.0 142.2 390.0ZM157.4 389.8L161.9 389.8L161.7 391.3Q161.6 392.9 161.1 394.6Q160.6 396.3 160.1 397.7Q159.6 399.0 159.3 399.8L159.3 399.8L155.8 399.8Q156.0 399.1 156.3 397.7Q156.6 396.4 156.9 394.7Q157.2 393.0 157.3 391.3L157.3 391.3L157.4 389.8Z M182.3 371.8L174.3 371.8L174.3 367.2L195.8 367.2L195.8 371.8L187.8 371.8L187.8 393.4L182.3 393.4L182.3 371.8ZM202.2 393.8L202.2 393.8Q200.3 393.8 198.8 393.1Q197.4 392.5 196.5 391.2Q195.7 389.9 195.7 387.9L195.7 387.9Q195.7 386.3 196.3 385.2Q196.9 384.1 197.9 383.4Q198.9 382.7 200.3 382.4Q201.6 382.0 203.1 381.9L203.1 381.9Q204.8 381.7 205.8 381.6Q206.9 381.4 207.3 381.1Q207.8 380.8 207.8 380.1L207.8 380.1L207.8 380.1Q207.8 378.8 207.0 378.2Q206.3 377.5 204.9 377.5L204.9 377.5Q203.4 377.5 202.6 378.2Q201.7 378.8 201.4 379.8L201.4 379.8L196.4 379.4Q196.7 377.6 197.9 376.3Q199.0 375.0 200.8 374.2Q202.6 373.5 204.9 373.5L204.9 373.5Q206.6 373.5 208.1 373.9Q209.6 374.3 210.7 375.1Q211.9 375.9 212.6 377.2Q213.3 378.4 213.3 380.2L213.3 380.2L213.3 393.4L208.1 393.4L208.1 390.7L207.9 390.7Q207.5 391.6 206.7 392.3Q205.9 393.0 204.8 393.4Q203.7 393.8 202.2 393.8ZM203.8 390.0L203.8 390.0Q205.0 390.0 205.9 389.6Q206.8 389.1 207.3 388.3Q207.8 387.4 207.8 386.4L207.8 386.4L207.8 384.3Q207.6 384.5 207.1 384.6Q206.7 384.8 206.2 384.9Q205.6 385.0 205.1 385.1Q204.5 385.1 204.1 385.2L204.1 385.2Q203.1 385.3 202.4 385.7Q201.7 386.0 201.3 386.5Q200.9 387.0 200.9 387.8L200.9 387.8Q200.9 388.9 201.7 389.5Q202.5 390.0 203.8 390.0ZM222.9 393.4L217.5 393.4L217.5 373.8L222.9 373.8L222.9 393.4ZM220.2 371.3L220.2 371.3Q219.0 371.3 218.1 370.4Q217.3 369.6 217.3 368.5L217.3 368.5Q217.3 367.4 218.1 366.6Q219.0 365.7 220.2 365.7L220.2 365.7Q221.4 365.7 222.3 366.6Q223.2 367.4 223.2 368.5L223.2 368.5Q223.2 369.6 222.3 370.4Q221.4 371.3 220.2 371.3ZM227.3 367.2L232.7 367.2L232.7 393.4L227.3 393.4L227.3 367.2ZM246.7 393.4L240.9 393.4L235.6 373.8L241.1 373.8L244.2 387.0L244.3 387.0L247.5 373.8L252.9 373.8L256.1 386.9L256.3 386.9L259.3 373.8L264.8 373.8L259.5 393.4L253.7 393.4L250.3 381.1L250.1 381.1L246.7 393.4ZM273.1 393.4L267.7 393.4L267.7 373.8L273.1 373.8L273.1 393.4ZM270.4 371.3L270.4 371.3Q269.2 371.3 268.3 370.4Q267.5 369.6 267.5 368.5L267.5 368.5Q267.5 367.4 268.3 366.6Q269.2 365.7 270.4 365.7L270.4 365.7Q271.6 365.7 272.5 366.6Q273.4 367.4 273.4 368.5L273.4 368.5Q273.4 369.6 272.5 370.4Q271.6 371.3 270.4 371.3ZM282.9 382.1L282.9 382.1L282.9 393.4L277.5 393.4L277.5 373.8L282.7 373.8L282.7 377.3L282.9 377.3Q283.5 375.5 285.1 374.5Q286.6 373.5 288.8 373.5L288.8 373.5Q290.8 373.5 292.4 374.4Q293.9 375.3 294.7 377.0Q295.6 378.6 295.6 380.9L295.6 380.9L295.6 393.4L290.1 393.4L290.1 381.9Q290.1 380.1 289.2 379.1Q288.3 378.1 286.6 378.1L286.6 378.1Q285.5 378.1 284.7 378.5Q283.9 379.0 283.4 379.9Q282.9 380.8 282.9 382.1ZM307.1 393.7L307.1 393.7Q304.9 393.7 303.0 392.6Q301.2 391.4 300.2 389.2Q299.1 386.9 299.1 383.6L299.1 383.6Q299.1 380.3 300.2 378.0Q301.3 375.8 303.1 374.7Q304.9 373.5 307.1 373.5L307.1 373.5Q308.7 373.5 309.8 374.1Q310.9 374.6 311.6 375.5Q312.3 376.3 312.7 377.1L312.7 377.1L312.8 377.1L312.8 367.2L318.3 367.2L318.3 393.4L312.9 393.4L312.9 390.3L312.7 390.3Q312.3 391.1 311.6 391.9Q310.9 392.7 309.8 393.2Q308.7 393.7 307.1 393.7ZM308.8 389.4L308.8 389.4Q310.1 389.4 311.0 388.7Q312.0 388.0 312.5 386.7Q312.9 385.4 312.9 383.6L312.9 383.6Q312.9 381.9 312.5 380.6Q312.0 379.3 311.1 378.6Q310.1 377.9 308.8 377.9L308.8 377.9Q307.5 377.9 306.6 378.6Q305.6 379.3 305.2 380.6Q304.7 381.9 304.7 383.6L304.7 383.6Q304.7 385.3 305.2 386.6Q305.6 387.9 306.6 388.7Q307.5 389.4 308.8 389.4ZM345.9 376.4L345.9 376.4L340.3 376.4Q340.2 375.3 339.7 374.5Q339.2 373.6 338.5 373.0Q337.7 372.4 336.8 372.1Q335.8 371.8 334.7 371.8L334.7 371.8Q332.7 371.8 331.1 372.8Q329.6 373.8 328.8 375.7Q328.0 377.6 328.0 380.3L328.0 380.3Q328.0 383.1 328.8 385.0Q329.7 386.9 331.2 387.9Q332.7 388.9 334.7 388.9L334.7 388.9Q335.8 388.9 336.7 388.6Q337.7 388.3 338.4 387.7Q339.2 387.2 339.6 386.3Q340.1 385.5 340.3 384.5L340.3 384.5L345.9 384.5Q345.7 386.3 344.8 388.0Q344.0 389.6 342.5 390.9Q341.1 392.3 339.1 393.0Q337.1 393.8 334.6 393.8L334.6 393.8Q331.1 393.8 328.3 392.2Q325.5 390.6 324.0 387.6Q322.4 384.6 322.4 380.3L322.4 380.3Q322.4 376.0 324.0 373.0Q325.6 370.0 328.3 368.5Q331.1 366.9 334.6 366.9L334.6 366.9Q336.8 366.9 338.8 367.5Q340.7 368.2 342.2 369.4Q343.8 370.6 344.7 372.4Q345.7 374.1 345.9 376.4ZM369.4 374.8L364.1 374.8Q364.0 373.2 362.8 372.4Q361.6 371.5 359.6 371.5L359.6 371.5Q358.3 371.5 357.3 371.9Q356.4 372.3 355.9 372.9Q355.4 373.6 355.4 374.4L355.4 374.4Q355.4 375.1 355.7 375.7Q356.1 376.2 356.6 376.6Q357.2 376.9 358.0 377.2Q358.7 377.5 359.6 377.7L359.6 377.7L361.9 378.2Q363.6 378.6 365.1 379.3Q366.5 379.9 367.5 380.8Q368.6 381.8 369.2 383.0Q369.8 384.3 369.8 385.9L369.8 385.9Q369.8 388.3 368.5 390.1Q367.3 391.9 365.1 392.8Q362.8 393.8 359.6 393.8L359.6 393.8Q356.4 393.8 354.1 392.8Q351.7 391.9 350.4 389.9Q349.1 388.0 349.1 385.2L349.1 385.2L354.4 385.2Q354.5 386.5 355.2 387.4Q355.8 388.3 357.0 388.7Q358.1 389.2 359.5 389.2L359.5 389.2Q360.9 389.2 362.0 388.7Q363.0 388.3 363.6 387.6Q364.2 386.9 364.2 385.9L364.2 385.9Q364.2 385.0 363.7 384.4Q363.1 383.8 362.2 383.4Q361.2 383.0 359.7 382.7L359.7 382.7L356.9 381.9Q353.6 381.1 351.7 379.4Q349.7 377.7 349.7 374.8L349.7 374.8Q349.7 372.4 351.0 370.7Q352.3 368.9 354.6 367.9Q356.8 366.9 359.7 366.9L359.7 366.9Q362.6 366.9 364.8 367.9Q366.9 368.9 368.2 370.7Q369.4 372.4 369.4 374.8L369.4 374.8ZM393.0 374.8L387.7 374.8Q387.5 373.2 386.4 372.4Q385.2 371.5 383.2 371.5L383.2 371.5Q381.8 371.5 380.9 371.9Q380.0 372.3 379.5 372.9Q379.0 373.6 379.0 374.4L379.0 374.4Q379.0 375.1 379.3 375.7Q379.6 376.2 380.2 376.6Q380.8 376.9 381.5 377.2Q382.3 377.5 383.1 377.7L383.1 377.7L385.5 378.2Q387.2 378.6 388.6 379.3Q390.1 379.9 391.1 380.8Q392.2 381.8 392.7 383.0Q393.3 384.3 393.3 385.9L393.3 385.9Q393.3 388.3 392.1 390.1Q390.9 391.9 388.6 392.8Q386.4 393.8 383.2 393.8L383.2 393.8Q380.0 393.8 377.7 392.8Q375.3 391.9 374.0 389.9Q372.7 388.0 372.6 385.2L372.6 385.2L378.0 385.2Q378.1 386.5 378.7 387.4Q379.4 388.3 380.6 388.7Q381.7 389.2 383.1 389.2L383.1 389.2Q384.5 389.2 385.6 388.7Q386.6 388.3 387.2 387.6Q387.8 386.9 387.8 385.9L387.8 385.9Q387.8 385.0 387.2 384.4Q386.7 383.8 385.7 383.4Q384.7 383.0 383.3 382.7L383.3 382.7L380.5 381.9Q377.1 381.1 375.2 379.4Q373.3 377.7 373.3 374.8L373.3 374.8Q373.3 372.4 374.6 370.7Q375.9 368.9 378.1 367.9Q380.4 366.9 383.2 366.9L383.2 366.9Q386.2 366.9 388.3 367.9Q390.5 368.9 391.7 370.7Q392.9 372.4 393.0 374.8L393.0 374.8ZM398.4 389.8L402.9 389.8L402.7 391.3Q402.6 392.9 402.1 394.6Q401.6 396.3 401.1 397.7Q400.6 399.0 400.3 399.8L400.3 399.8L396.8 399.8Q397.0 399.1 397.3 397.7Q397.6 396.4 397.9 394.7Q398.2 393.0 398.3 391.3L398.3 391.3L398.4 389.8Z M424.5 393.8L424.5 393.8Q422.6 393.8 421.1 393.1Q419.6 392.5 418.8 391.2Q417.9 389.9 417.9 387.9L417.9 387.9Q417.9 386.3 418.5 385.2Q419.1 384.1 420.2 383.4Q421.2 382.7 422.5 382.4Q423.9 382.0 425.3 381.9L425.3 381.9Q427.0 381.7 428.1 381.6Q429.1 381.4 429.6 381.1Q430.1 380.8 430.1 380.1L430.1 380.1L430.1 380.1Q430.1 378.8 429.3 378.2Q428.5 377.5 427.2 377.5L427.2 377.5Q425.7 377.5 424.8 378.2Q423.9 378.8 423.7 379.8L423.7 379.8L418.6 379.4Q419.0 377.6 420.1 376.3Q421.3 375.0 423.0 374.2Q424.8 373.5 427.2 373.5L427.2 373.5Q428.8 373.5 430.3 373.9Q431.8 374.3 433.0 375.1Q434.2 375.9 434.8 377.2Q435.5 378.4 435.5 380.2L435.5 380.2L435.5 393.4L430.4 393.4L430.4 390.7L430.2 390.7Q429.7 391.6 428.9 392.3Q428.1 393.0 427.0 393.4Q425.9 393.8 424.5 393.8ZM426.0 390.0L426.0 390.0Q427.2 390.0 428.1 389.6Q429.1 389.1 429.6 388.3Q430.1 387.4 430.1 386.4L430.1 386.4L430.1 384.3Q429.9 384.5 429.4 384.6Q429.0 384.8 428.4 384.9Q427.9 385.0 427.3 385.1Q426.8 385.1 426.3 385.2L426.3 385.2Q425.4 385.3 424.7 385.7Q423.9 386.0 423.5 386.5Q423.1 387.0 423.1 387.8L423.1 387.8Q423.1 388.9 424.0 389.5Q424.8 390.0 426.0 390.0ZM445.2 382.1L445.2 382.1L445.2 393.4L439.7 393.4L439.7 373.8L444.9 373.8L444.9 377.3L445.2 377.3Q445.8 375.5 447.4 374.5Q448.9 373.5 451.1 373.5L451.1 373.5Q453.1 373.5 454.6 374.4Q456.2 375.3 457.0 377.0Q457.9 378.6 457.9 380.9L457.9 380.9L457.9 393.4L452.4 393.4L452.4 381.9Q452.4 380.1 451.5 379.1Q450.6 378.1 448.9 378.1L448.9 378.1Q447.8 378.1 447.0 378.5Q446.1 379.0 445.7 379.9Q445.2 380.8 445.2 382.1ZM469.4 393.7L469.4 393.7Q467.1 393.7 465.3 392.6Q463.5 391.4 462.5 389.2Q461.4 386.9 461.4 383.6L461.4 383.6Q461.4 380.3 462.5 378.0Q463.6 375.8 465.4 374.7Q467.2 373.5 469.4 373.5L469.4 373.5Q471.0 373.5 472.1 374.1Q473.2 374.6 473.9 375.5Q474.6 376.3 474.9 377.1L474.9 377.1L475.1 377.1L475.1 367.2L480.5 367.2L480.5 393.4L475.2 393.4L475.2 390.3L474.9 390.3Q474.6 391.1 473.9 391.9Q473.2 392.7 472.1 393.2Q471.0 393.7 469.4 393.7ZM471.1 389.4L471.1 389.4Q472.4 389.4 473.3 388.7Q474.2 388.0 474.7 386.7Q475.2 385.4 475.2 383.6L475.2 383.6Q475.2 381.9 474.7 380.6Q474.3 379.3 473.3 378.6Q472.4 377.9 471.1 377.9L471.1 377.9Q469.8 377.9 468.8 378.6Q467.9 379.3 467.4 380.6Q467.0 381.9 467.0 383.6L467.0 383.6Q467.0 385.3 467.4 386.6Q467.9 387.9 468.8 388.7Q469.8 389.4 471.1 389.4Z M493.5 393.4L493.5 367.2L500.3 367.2L507.5 384.8L507.8 384.8L515.0 367.2L521.8 367.2L521.8 393.4L516.5 393.4L516.5 376.4L516.2 376.4L509.5 393.3L505.8 393.3L499.0 376.3L498.8 376.3L498.8 393.4L493.5 393.4ZM535.2 393.8L535.2 393.8Q532.2 393.8 530.0 392.5Q527.8 391.3 526.7 389.0Q525.5 386.7 525.5 383.7L525.5 383.7Q525.5 380.6 526.7 378.4Q527.8 376.1 530.0 374.8Q532.2 373.5 535.2 373.5L535.2 373.5Q538.1 373.5 540.3 374.8Q542.5 376.1 543.6 378.4Q544.8 380.6 544.8 383.7L544.8 383.7Q544.8 386.7 543.6 389.0Q542.5 391.3 540.3 392.5Q538.1 393.8 535.2 393.8ZM535.2 389.6L535.2 389.6Q536.5 389.6 537.4 388.8Q538.4 388.0 538.8 386.7Q539.3 385.4 539.3 383.6L539.3 383.6Q539.3 381.9 538.8 380.6Q538.4 379.2 537.4 378.5Q536.5 377.7 535.2 377.7L535.2 377.7Q533.8 377.7 532.9 378.5Q532.0 379.2 531.5 380.6Q531.0 381.9 531.0 383.6L531.0 383.6Q531.0 385.4 531.5 386.7Q532.0 388.0 532.9 388.8Q533.8 389.6 535.2 389.6ZM553.8 382.1L553.8 382.1L553.8 393.4L548.4 393.4L548.4 373.8L553.6 373.8L553.6 377.3L553.8 377.3Q554.4 375.5 556.0 374.5Q557.5 373.5 559.7 373.5L559.7 373.5Q561.7 373.5 563.3 374.4Q564.8 375.3 565.6 377.0Q566.5 378.6 566.5 380.9L566.5 380.9L566.5 393.4L561.0 393.4L561.0 381.9Q561.0 380.1 560.1 379.1Q559.2 378.1 557.5 378.1L557.5 378.1Q556.4 378.1 555.6 378.5Q554.8 379.0 554.3 379.9Q553.8 380.8 553.8 382.1ZM579.6 401.2L579.6 401.2Q577.0 401.2 575.1 400.5Q573.2 399.8 572.1 398.5Q571.0 397.3 570.6 395.7L570.6 395.7L575.7 395.0Q575.9 395.6 576.4 396.1Q576.9 396.7 577.7 397.0Q578.5 397.3 579.7 397.3L579.7 397.3Q581.5 397.3 582.7 396.4Q583.8 395.6 583.8 393.5L583.8 393.5L583.8 389.9L583.6 389.9Q583.2 390.8 582.5 391.5Q581.8 392.2 580.7 392.7Q579.6 393.1 578.0 393.1L578.0 393.1Q575.8 393.1 574.0 392.1Q572.2 391.1 571.1 389.0Q570.0 386.8 570.0 383.6L570.0 383.6Q570.0 380.2 571.1 378.0Q572.2 375.8 574.0 374.6Q575.8 373.5 578.0 373.5L578.0 373.5Q579.6 373.5 580.7 374.1Q581.9 374.6 582.5 375.5Q583.2 376.3 583.6 377.1L583.6 377.1L583.8 377.1L583.8 373.8L589.2 373.8L589.2 393.6Q589.2 396.1 588.0 397.8Q586.8 399.5 584.6 400.3Q582.4 401.2 579.6 401.2ZM579.7 389.1L579.7 389.1Q581.0 389.1 582.0 388.4Q582.9 387.7 583.4 386.5Q583.9 385.3 583.9 383.5L583.9 383.5Q583.9 381.8 583.4 380.5Q582.9 379.3 582.0 378.6Q581.0 377.9 579.7 377.9L579.7 377.9Q578.4 377.9 577.5 378.6Q576.5 379.3 576.1 380.6Q575.6 381.9 575.6 383.5L575.6 383.5Q575.6 385.2 576.1 386.5Q576.6 387.7 577.5 388.4Q578.4 389.1 579.7 389.1ZM602.4 393.8L602.4 393.8Q599.4 393.8 597.3 392.5Q595.1 391.3 593.9 389.0Q592.8 386.7 592.8 383.7L592.8 383.7Q592.8 380.6 593.9 378.4Q595.1 376.1 597.3 374.8Q599.4 373.5 602.4 373.5L602.4 373.5Q605.4 373.5 607.6 374.8Q609.7 376.1 610.9 378.4Q612.1 380.6 612.1 383.7L612.1 383.7Q612.1 386.7 610.9 389.0Q609.7 391.3 607.6 392.5Q605.4 393.8 602.4 393.8ZM602.5 389.6L602.5 389.6Q603.8 389.6 604.7 388.8Q605.6 388.0 606.1 386.7Q606.6 385.4 606.6 383.6L606.6 383.6Q606.6 381.9 606.1 380.6Q605.6 379.2 604.7 378.5Q603.8 377.7 602.5 377.7L602.5 377.7Q601.1 377.7 600.2 378.5Q599.2 379.2 598.8 380.6Q598.3 381.9 598.3 383.6L598.3 383.6Q598.3 385.4 598.8 386.7Q599.2 388.0 600.2 388.8Q601.1 389.6 602.5 389.6ZM625.0 393.4L625.0 393.4L615.7 393.4L615.7 367.2L625.1 367.2Q629.1 367.2 631.9 368.8Q634.8 370.4 636.3 373.3Q637.8 376.2 637.8 380.3L637.8 380.3Q637.8 384.4 636.3 387.3Q634.8 390.3 631.9 391.9Q629.0 393.4 625.0 393.4ZM621.3 372.0L621.3 388.7L624.8 388.7Q627.3 388.7 628.9 387.8Q630.6 386.9 631.5 385.1Q632.3 383.2 632.3 380.3L632.3 380.3Q632.3 377.4 631.5 375.6Q630.6 373.7 628.9 372.9Q627.3 372.0 624.8 372.0L624.8 372.0L621.3 372.0ZM653.1 393.4L641.9 393.4L641.9 367.2L652.4 367.2Q655.3 367.2 657.2 368.1Q659.2 369.0 660.1 370.5Q661.1 372.0 661.1 374.0L661.1 374.0Q661.1 375.5 660.5 376.6Q659.9 377.8 658.8 378.5Q657.7 379.3 656.4 379.6L656.4 379.6L656.4 379.8Q657.9 379.9 659.2 380.7Q660.5 381.5 661.3 382.9Q662.1 384.3 662.1 386.2L662.1 386.2Q662.1 388.3 661.1 389.9Q660.1 391.5 658.1 392.5Q656.1 393.4 653.1 393.4L653.1 393.4ZM647.5 381.9L647.5 388.9L652.0 388.9Q654.3 388.9 655.4 388.0Q656.4 387.1 656.4 385.6L656.4 385.6Q656.4 384.6 655.9 383.7Q655.4 382.9 654.4 382.4Q653.4 381.9 652.1 381.9L652.1 381.9L647.5 381.9ZM647.5 371.7L647.5 378.2L651.6 378.2Q652.7 378.2 653.6 377.8Q654.5 377.4 655.0 376.7Q655.5 375.9 655.5 374.9L655.5 374.9Q655.5 373.5 654.5 372.6Q653.5 371.7 651.7 371.7L651.7 371.7L647.5 371.7ZM668.8 393.8L668.8 393.8Q667.5 393.8 666.6 392.9Q665.7 392.0 665.7 390.7L665.7 390.7Q665.7 389.4 666.6 388.5Q667.5 387.6 668.8 387.6L668.8 387.6Q670.0 387.6 670.9 388.5Q671.9 389.4 671.9 390.7L671.9 390.7Q671.9 391.5 671.4 392.2Q671.0 392.9 670.3 393.3Q669.6 393.8 668.8 393.8Z "/></svg>