<svg width="800" height="400" viewBox="0 0 800 400" xmlns="http://www.w3.org/2000/svg"><mask id="satori_om-id"><rect x="0" y="0" width="800" height="400" fill="#fff"/></mask><rect x="0" y="0" width="800" height="400" fill="#fff"/><mask id="satori_om-id-0"><rect x="0" y="88" width="800" height="224" fill="#fff"/></mask><rect x="0" y="88" width="800" height="224" fill="#f9fafb"/><mask id="satori_om-id-0-0"><rect x="0" y="88" width="800" height="224" fill="#fff"/></mask><mask id="satori_om-id-0-0-0"><rect x="32" y="140" width="736" height="120" fill="#fff"/></mask><mask id="satori_om-id-0-0-0-0"><rect x="32" y="140" width="736" height="40" fill="#fff"/></mask><path fill="#111827" d="M57.4 155.1L57.4 155.1L51.8 155.1Q51.6 154.0 51.2 153.1Q50.7 152.3 49.9 151.7Q49.2 151.1 48.2 150.8Q47.3 150.4 46.1 150.4L46.1 150.4Q44.1 150.4 42.6 151.4Q41.1 152.4 40.3 154.4Q39.4 156.3 39.4 159.0L39.4 159.0Q39.4 161.8 40.3 163.7Q41.1 165.6 42.6 166.6Q44.1 167.5 46.1 167.5L46.1 167.5Q47.2 167.5 48.2 167.3Q49.1 167.0 49.9 166.4Q50.6 165.8 51.1 165.0Q51.6 164.2 51.8 163.1L51.8 163.1L57.4 163.2Q57.2 165.0 56.3 166.6Q55.4 168.3 54.0 169.6Q52.5 170.9 50.5 171.7Q48.5 172.4 46.0 172.4L46.0 172.4Q42.5 172.4 39.8 170.9Q37.0 169.3 35.4 166.3Q33.8 163.3 33.8 159.0L33.8 159.0Q33.8 154.7 35.4 151.7Q37.0 148.7 39.8 147.1Q42.6 145.5 46.0 145.5L46.0 145.5Q48.3 145.5 50.2 146.2Q52.2 146.8 53.7 148.0Q55.2 149.3 56.2 151.0Q57.1 152.8 57.4 155.1ZM65.8 160.7L65.8 160.7L65.8 172.1L60.4 172.1L60.4 145.9L65.6 145.9L65.6 155.9L65.9 155.9Q66.5 154.2 68.0 153.2Q69.5 152.2 71.7 152.2L71.7 152.2Q73.8 152.2 75.3 153.1Q76.8 154.0 77.7 155.6Q78.5 157.3 78.5 159.6L78.5 159.6L78.5 172.1L73.1 172.1L73.1 160.6Q73.1 158.7 72.2 157.7Q71.2 156.7 69.6 156.7L69.6 156.7Q68.5 156.7 67.6 157.2Q66.8 157.7 66.3 158.6Q65.8 159.5 65.8 160.7ZM90.9 172.5L90.9 172.5Q87.8 172.5 85.7 171.2Q83.5 170.0 82.3 167.7Q81.1 165.5 81.1 162.4L81.1 162.4Q81.1 159.3 82.3 157.0Q83.5 154.7 85.6 153.5Q87.8 152.2 90.7 152.2L90.7 152.2Q92.6 152.2 94.3 152.8Q96.0 153.4 97.2 154.7Q98.5 155.9 99.2 157.8Q99.9 159.7 99.9 162.2L99.9 162.2L99.9 163.7L83.3 163.7L83.3 160.3L94.8 160.3Q94.8 159.1 94.2 158.2Q93.7 157.3 92.8 156.8Q91.9 156.3 90.7 156.3L90.7 156.3Q89.5 156.3 88.6 156.8Q87.6 157.4 87.1 158.3Q86.5 159.3 86.5 160.5L86.5 160.5L86.5 163.7Q86.5 165.1 87.1 166.2Q87.6 167.3 88.6 167.8Q89.6 168.4 91.0 168.4L91.0 168.4Q91.9 168.4 92.6 168.1Q93.4 167.9 93.9 167.4Q94.5 166.9 94.7 166.1L94.7 166.1L99.8 166.5Q99.4 168.3 98.2 169.6Q97.0 171.0 95.2 171.7Q93.3 172.5 90.9 172.5ZM111.4 172.5L111.4 172.5Q108.4 172.5 106.2 171.2Q104.1 169.9 102.9 167.6Q101.7 165.3 101.7 162.3L101.7 162.3Q101.7 159.3 102.9 157.0Q104.1 154.8 106.2 153.5Q108.4 152.2 111.4 152.2L111.4 152.2Q114.0 152.2 115.9 153.1Q117.8 154.1 118.9 155.7Q120.1 157.4 120.2 159.7L120.2 159.7L115.0 159.7Q114.8 158.2 113.9 157.3Q113.0 156.4 111.5 156.4L111.5 156.4Q110.2 156.4 109.3 157.1Q108.3 157.8 107.8 159.1Q107.3 160.4 107.3 162.3L107.3 162.3Q107.3 164.1 107.8 165.5Q108.3 166.8 109.3 167.5Q110.2 168.2 111.5 168.2L111.5 168.2Q112.4 168.2 113.2 167.8Q113.9 167.4 114.4 166.7Q114.9 165.9 115.0 164.9L115.0 164.9L120.2 164.9Q120.1 167.1 119.0 168.8Q117.9 170.5 116.0 171.5Q114.0 172.5 111.4 172.5ZM131.3 162.3L127.7 166.4L127.7 159.9L128.5 159.9L134.8 152.4L141.1 152.4L132.6 162.3L131.3 162.3ZM128.2 172.1L122.8 172.1L122.8 145.9L128.2 145.9L128.2 172.1ZM141.4 172.1L135.1 172.1L129.3 163.5L132.9 159.7L141.4 172.1Z M159.1 172.5L159.1 172.5Q156.2 172.5 154.0 171.2Q151.8 169.9 150.7 167.6Q149.5 165.4 149.5 162.3L149.5 162.3Q149.5 159.3 150.7 157.0Q151.8 154.7 154.0 153.5Q156.2 152.2 159.1 152.2L159.1 152.2Q162.1 152.2 164.3 153.5Q166.5 154.7 167.6 157.0Q168.8 159.3 168.8 162.3L168.8 162.3Q168.8 165.4 167.6 167.6Q166.5 169.9 164.3 171.2Q162.1 172.5 159.1 172.5ZM159.2 168.2L159.2 168.2Q160.5 168.2 161.4 167.5Q162.3 166.7 162.8 165.4Q163.3 164.0 163.3 162.3L163.3 162.3Q163.3 160.6 162.8 159.2Q162.3 157.9 161.4 157.1Q160.5 156.3 159.2 156.3L159.2 156.3Q157.8 156.3 156.9 157.1Q155.9 157.9 155.5 159.2Q155.0 160.6 155.0 162.3L155.0 162.3Q155.0 164.0 155.5 165.4Q155.9 166.7 156.9 167.5Q157.8 168.2 159.2 168.2ZM184.1 163.7L184.1 163.7L184.1 152.4L189.5 152.4L189.5 172.1L184.3 172.1L184.3 168.5L184.1 168.5Q183.4 170.2 181.9 171.3Q180.3 172.3 178.1 172.3L178.1 172.3Q176.1 172.3 174.6 171.4Q173.2 170.5 172.3 168.9Q171.5 167.3 171.5 164.9L171.5 164.9L171.5 152.4L176.9 152.4L176.9 164.0Q176.9 165.7 177.8 166.7Q178.8 167.7 180.3 167.7L180.3 167.7Q181.3 167.7 182.2 167.3Q183.0 166.8 183.5 165.9Q184.1 165.0 184.1 163.7ZM191.6 152.4L203.4 152.4L203.4 156.5L191.6 156.5L191.6 152.4ZM194.3 166.8L194.3 147.7L199.7 147.7L199.7 166.0Q199.7 166.8 199.9 167.2Q200.2 167.6 200.6 167.8Q201.0 168.0 201.5 168.0L201.5 168.0Q201.9 168.0 202.3 167.9Q202.7 167.8 202.9 167.8L202.9 167.8L203.8 171.8Q203.3 172.0 202.6 172.1Q201.9 172.3 200.8 172.4L200.8 172.4Q198.8 172.4 197.4 171.8Q195.9 171.2 195.1 170.0Q194.2 168.7 194.3 166.8L194.3 166.8Z M218.9 172.1L213.5 172.1L213.5 152.4L218.7 152.4L218.7 155.9L218.9 155.9Q219.5 154.2 220.9 153.2Q222.4 152.2 224.4 152.2L224.4 152.2Q226.4 152.2 227.8 153.2Q229.2 154.2 229.7 155.9L229.7 155.9L229.9 155.9Q230.5 154.2 232.1 153.2Q233.7 152.2 235.8 152.2L235.8 152.2Q238.6 152.2 240.3 153.9Q242.0 155.7 242.0 158.9L242.0 158.9L242.0 172.1L236.6 172.1L236.6 160.0Q236.6 158.3 235.7 157.5Q234.8 156.7 233.5 156.7L233.5 156.7Q232.1 156.7 231.2 157.6Q230.4 158.6 230.4 160.1L230.4 160.1L230.4 172.1L225.1 172.1L225.1 159.8Q225.1 158.4 224.3 157.5Q223.5 156.7 222.1 156.7L222.1 156.7Q221.2 156.7 220.5 157.1Q219.8 157.6 219.4 158.4Q218.9 159.2 218.9 160.3L218.9 160.3L218.9 172.1ZM248.1 179.4L248.1 179.4Q247.0 179.4 246.1 179.3Q245.2 179.1 244.6 178.9L244.6 178.9L245.9 174.8Q246.8 175.1 247.6 175.1Q248.4 175.2 248.9 174.8Q249.5 174.4 249.9 173.5L249.9 173.5L250.2 172.6L243.1 152.4L248.9 152.4L252.9 166.9L253.1 166.9L257.2 152.4L263.0 152.4L255.4 174.2Q254.8 175.8 253.9 177.0Q252.9 178.2 251.5 178.8Q250.1 179.4 248.1 179.4Z M289.4 158.0L289.4 158.0L284.4 158.4Q284.3 157.7 283.9 157.2Q283.4 156.7 282.8 156.4Q282.1 156.1 281.1 156.1L281.1 156.1Q279.9 156.1 279.0 156.6Q278.1 157.1 278.1 158.0L278.1 158.0Q278.1 158.7 278.7 159.2Q279.2 159.7 280.6 160.0L280.6 160.0L284.2 160.7Q287.0 161.3 288.4 162.6Q289.8 163.9 289.8 166.0L289.8 166.0Q289.8 167.9 288.7 169.4Q287.6 170.8 285.6 171.7Q283.7 172.5 281.1 172.5L281.1 172.5Q277.2 172.5 274.9 170.8Q272.6 169.2 272.2 166.4L272.2 166.4L277.5 166.1Q277.8 167.3 278.7 167.9Q279.7 168.5 281.1 168.5L281.1 168.5Q282.5 168.5 283.4 168.0Q284.3 167.4 284.3 166.5L284.3 166.5Q284.3 165.8 283.7 165.3Q283.1 164.8 281.8 164.6L281.8 164.6L278.4 163.9Q275.5 163.3 274.1 161.9Q272.7 160.5 272.7 158.3L272.7 158.3Q272.7 156.4 273.7 155.0Q274.8 153.7 276.6 152.9Q278.5 152.2 281.0 152.2L281.0 152.2Q284.8 152.2 286.9 153.8Q289.0 155.3 289.4 158.0ZM297.8 172.1L292.4 172.1L292.4 152.4L297.8 152.4L297.8 172.1ZM295.1 149.9L295.1 149.9Q293.9 149.9 293.0 149.1Q292.2 148.3 292.2 147.2L292.2 147.2Q292.2 146.0 293.0 145.2Q293.9 144.4 295.1 144.4L295.1 144.4Q296.3 144.4 297.2 145.2Q298.1 146.0 298.1 147.2L298.1 147.2Q298.1 148.3 297.2 149.1Q296.3 149.9 295.1 149.9ZM299.9 152.4L311.7 152.4L311.7 156.5L299.9 156.5L299.9 152.4ZM302.6 166.8L302.6 147.7L308.0 147.7L308.0 166.0Q308.0 166.8 308.3 167.2Q308.5 167.6 308.9 167.8Q309.3 168.0 309.9 168.0L309.9 168.0Q310.2 168.0 310.6 167.9Q311.0 167.8 311.2 167.8L311.2 167.8L312.1 171.8Q311.7 172.0 310.9 172.1Q310.2 172.3 309.1 172.4L309.1 172.4Q307.2 172.4 305.7 171.8Q304.2 171.2 303.4 170.0Q302.6 168.7 302.6 166.8L302.6 166.8ZM323.1 172.5L323.1 172.5Q320.1 172.5 317.9 171.2Q315.7 170.0 314.5 167.7Q313.4 165.5 313.4 162.4L313.4 162.4Q313.4 159.3 314.5 157.0Q315.7 154.7 317.9 153.5Q320.0 152.2 322.9 152.2L322.9 152.2Q324.8 152.2 326.5 152.8Q328.2 153.4 329.4 154.7Q330.7 155.9 331.4 157.8Q332.1 159.7 332.1 162.2L332.1 162.2L332.1 163.7L315.5 163.7L315.5 160.3L327.0 160.3Q327.0 159.1 326.5 158.2Q326.0 157.3 325.1 156.8Q324.2 156.3 323.0 156.3L323.0 156.3Q321.7 156.3 320.8 156.8Q319.8 157.4 319.3 158.3Q318.8 159.3 318.7 160.5L318.7 160.5L318.7 163.7Q318.7 165.1 319.3 166.2Q319.8 167.3 320.8 167.8Q321.8 168.4 323.2 168.4L323.2 168.4Q324.1 168.4 324.9 168.1Q325.6 167.9 326.1 167.4Q326.7 166.9 327.0 166.1L327.0 166.1L332.0 166.5Q331.6 168.3 330.4 169.6Q329.3 171.0 327.4 171.7Q325.5 172.5 323.1 172.5Z "/><mask id="satori_om-id-0-0-0-1"><rect x="32" y="196" width="736" height="64" fill="#fff"/></mask><path fill="#6366f1" d="M40.9 206.6L36.5 220.1L32.6 220.1L38.6 202.6L43.4 202.6L49.4 220.1L45.4 220.1L41.0 206.6L40.9 206.6ZM36.3 216.1L36.3 213.2L45.6 213.2L45.6 216.1L36.3 216.1ZM54.1 212.5L54.1 212.5L54.1 220.1L50.5 220.1L50.5 207.0L54.0 207.0L54.0 209.3L54.1 209.3Q54.5 208.2 55.6 207.5Q56.6 206.8 58.0 206.8L58.0 206.8Q59.4 206.8 60.4 207.4Q61.4 208.0 62.0 209.1Q62.6 210.2 62.6 211.7L62.6 211.7L62.6 220.1L58.9 220.1L58.9 212.4Q58.9 211.2 58.3 210.5Q57.7 209.8 56.6 209.8L56.6 209.8Q55.9 209.8 55.3 210.1Q54.8 210.5 54.4 211.1Q54.1 211.7 54.1 212.5Z M75.2 220.3L75.2 220.3Q73.1 220.3 71.7 219.5Q70.2 218.7 69.4 217.2Q68.7 215.7 68.7 213.6L68.7 213.6Q68.7 211.6 69.4 210.0Q70.2 208.5 71.7 207.7Q73.1 206.8 75.0 206.8L75.0 206.8Q76.3 206.8 77.4 207.2Q78.5 207.6 79.4 208.5Q80.2 209.3 80.7 210.5Q81.2 211.8 81.2 213.5L81.2 213.5L81.2 214.5L70.1 214.5L70.1 212.2L77.7 212.2Q77.7 211.4 77.4 210.8Q77.1 210.2 76.5 209.9Q75.9 209.5 75.1 209.5L75.1 209.5Q74.2 209.5 73.6 209.9Q73.0 210.3 72.6 210.9Q72.3 211.6 72.2 212.3L72.2 212.3L72.2 214.5Q72.2 215.4 72.6 216.1Q73.0 216.9 73.6 217.2Q74.3 217.6 75.2 217.6L75.2 217.6Q75.8 217.6 76.3 217.5Q76.8 217.3 77.2 216.9Q77.5 216.6 77.7 216.1L77.7 216.1L81.1 216.3Q80.8 217.5 80.0 218.4Q79.3 219.3 78.0 219.8Q76.8 220.3 75.2 220.3ZM88.5 220.3L88.5 220.3Q86.5 220.3 85.1 219.5Q83.6 218.6 82.9 217.1Q82.1 215.6 82.1 213.6L82.1 213.6Q82.1 211.6 82.9 210.1Q83.7 208.5 85.1 207.7Q86.5 206.8 88.5 206.8L88.5 206.8Q90.2 206.8 91.5 207.4Q92.8 208.1 93.6 209.2Q94.3 210.3 94.4 211.8L94.4 211.8L91.0 211.8Q90.8 210.8 90.2 210.2Q89.6 209.6 88.6 209.6L88.6 209.6Q87.7 209.6 87.1 210.1Q86.5 210.6 86.1 211.4Q85.8 212.3 85.8 213.5L85.8 213.5Q85.8 214.8 86.1 215.7Q86.5 216.5 87.1 217.0Q87.7 217.5 88.6 217.5L88.6 217.5Q89.2 217.5 89.7 217.2Q90.2 216.9 90.5 216.5Q90.9 216.0 91.0 215.3L91.0 215.3L94.4 215.3Q94.3 216.8 93.6 217.9Q92.8 219.1 91.6 219.7Q90.3 220.3 88.5 220.3ZM101.7 220.3L101.7 220.3Q99.8 220.3 98.3 219.5Q96.9 218.6 96.1 217.1Q95.3 215.6 95.3 213.6L95.3 213.6Q95.3 211.6 96.1 210.0Q96.9 208.5 98.3 207.7Q99.8 206.8 101.7 206.8L101.7 206.8Q103.7 206.8 105.2 207.7Q106.6 208.5 107.4 210.0Q108.2 211.6 108.2 213.6L108.2 213.6Q108.2 215.6 107.4 217.1Q106.6 218.6 105.2 219.5Q103.7 220.3 101.7 220.3ZM101.8 217.5L101.8 217.5Q102.7 217.5 103.3 217.0Q103.9 216.5 104.2 215.6Q104.5 214.7 104.5 213.6L104.5 213.6Q104.5 212.4 104.2 211.5Q103.9 210.6 103.3 210.1Q102.7 209.6 101.8 209.6L101.8 209.6Q100.8 209.6 100.2 210.1Q99.6 210.6 99.3 211.5Q99.0 212.4 99.0 213.6L99.0 213.6Q99.0 214.7 99.3 215.6Q99.6 216.5 100.2 217.0Q100.8 217.5 101.8 217.5ZM113.3 220.1L109.7 220.1L109.7 207.0L113.1 207.0L113.1 209.3L113.3 209.3Q113.7 208.1 114.6 207.5Q115.6 206.8 116.9 206.8L116.9 206.8Q118.3 206.8 119.2 207.5Q120.2 208.2 120.5 209.3L120.5 209.3L120.6 209.3Q121.0 208.2 122.1 207.5Q123.1 206.8 124.6 206.8L124.6 206.8Q126.4 206.8 127.5 208.0Q128.7 209.1 128.7 211.3L128.7 211.3L128.7 220.1L125.1 220.1L125.1 212.0Q125.1 210.9 124.5 210.4Q123.9 209.8 123.0 209.8L123.0 209.8Q122.0 209.8 121.5 210.4Q120.9 211.1 120.9 212.1L120.9 212.1L120.9 220.1L117.4 220.1L117.4 211.9Q117.4 210.9 116.9 210.4Q116.3 209.8 115.4 209.8L115.4 209.8Q114.8 209.8 114.3 210.1Q113.8 210.4 113.6 211.0Q113.3 211.5 113.3 212.2L113.3 212.2L113.3 220.1ZM134.3 220.1L130.6 220.1L130.6 207.0L134.1 207.0L134.1 209.3L134.3 209.3Q134.7 208.1 135.6 207.5Q136.6 206.8 137.9 206.8L137.9 206.8Q139.2 206.8 140.2 207.5Q141.1 208.2 141.5 209.3L141.5 209.3L141.6 209.3Q142.0 208.2 143.0 207.5Q144.1 206.8 145.5 206.8L145.5 206.8Q147.4 206.8 148.5 208.0Q149.7 209.1 149.7 211.3L149.7 211.3L149.7 220.1L146.0 220.1L146.0 212.0Q146.0 210.9 145.5 210.4Q144.9 209.8 144.0 209.8L144.0 209.8Q143.0 209.8 142.5 210.4Q141.9 211.1 141.9 212.1L141.9 212.1L141.9 220.1L138.4 220.1L138.4 211.9Q138.4 210.9 137.8 210.4Q137.3 209.8 136.4 209.8L136.4 209.8Q135.8 209.8 135.3 210.1Q134.8 210.4 134.6 211.0Q134.3 211.5 134.3 212.2L134.3 212.2L134.3 220.1ZM157.6 220.3L157.6 220.3Q155.6 220.3 154.1 219.5Q152.7 218.7 151.9 217.2Q151.1 215.7 151.1 213.6L151.1 213.6Q151.1 211.6 151.9 210.0Q152.7 208.5 154.1 207.7Q155.5 206.8 157.4 206.8L157.4 206.8Q158.7 206.8 159.9 207.2Q161.0 207.6 161.8 208.5Q162.7 209.3 163.1 210.5Q163.6 211.8 163.6 213.5L163.6 213.5L163.6 214.5L152.5 214.5L152.5 212.2L160.2 212.2Q160.2 211.4 159.8 210.8Q159.5 210.2 158.9 209.9Q158.3 209.5 157.5 209.5L157.5 209.5Q156.7 209.5 156.0 209.9Q155.4 210.3 155.1 210.9Q154.7 211.6 154.7 212.3L154.7 212.3L154.7 214.5Q154.7 215.4 155.0 216.1Q155.4 216.9 156.1 217.2Q156.7 217.6 157.7 217.6L157.7 217.6Q158.3 217.6 158.8 217.5Q159.3 217.3 159.6 216.9Q160.0 216.6 160.2 216.1L160.2 216.1L163.5 216.3Q163.3 217.5 162.5 218.4Q161.7 219.3 160.5 219.8Q159.2 220.3 157.6 220.3ZM168.7 220.1L165.1 220.1L165.1 207.0L168.6 207.0L168.6 209.3L168.7 209.3Q169.1 208.1 169.9 207.4Q170.8 206.8 171.9 206.8L171.9 206.8Q172.1 206.8 172.5 206.8Q172.8 206.9 173.0 206.9L173.0 206.9L173.0 210.1Q172.8 210.1 172.3 210.0Q171.9 210.0 171.5 210.0L171.5 210.0Q170.7 210.0 170.1 210.3Q169.4 210.6 169.1 211.3Q168.7 211.9 168.7 212.7L168.7 212.7L168.7 220.1ZM179.3 220.3L179.3 220.3Q177.3 220.3 175.8 219.5Q174.4 218.6 173.6 217.1Q172.8 215.6 172.8 213.6L172.8 213.6Q172.8 211.6 173.6 210.1Q174.4 208.5 175.8 207.7Q177.3 206.8 179.3 206.8L179.3 206.8Q181.0 206.8 182.3 207.4Q183.6 208.1 184.3 209.2Q185.1 210.3 185.1 211.8L185.1 211.8L181.7 211.8Q181.6 210.8 180.9 210.2Q180.3 209.6 179.3 209.6L179.3 209.6Q178.5 209.6 177.9 210.1Q177.2 210.6 176.9 211.4Q176.5 212.3 176.5 213.5L176.5 213.5Q176.5 214.8 176.9 215.7Q177.2 216.5 177.8 217.0Q178.5 217.5 179.3 217.5L179.3 217.5Q179.9 217.5 180.4 217.2Q180.9 216.9 181.3 216.5Q181.6 216.0 181.7 215.3L181.7 215.3L185.1 215.3Q185.0 216.8 184.3 217.9Q183.6 219.1 182.3 219.7Q181.0 220.3 179.3 220.3ZM192.5 220.3L192.5 220.3Q190.5 220.3 189.1 219.5Q187.6 218.7 186.8 217.2Q186.0 215.7 186.0 213.6L186.0 213.6Q186.0 211.6 186.8 210.0Q187.6 208.5 189.0 207.7Q190.5 206.8 192.4 206.8L192.4 206.8Q193.7 206.8 194.8 207.2Q195.9 207.6 196.8 208.5Q197.6 209.3 198.1 210.5Q198.5 211.8 198.5 213.5L198.5 213.5L198.5 214.5L187.5 214.5L187.5 212.2L195.1 212.2Q195.1 211.4 194.8 210.8Q194.4 210.2 193.8 209.9Q193.2 209.5 192.4 209.5L192.4 209.5Q191.6 209.5 191.0 209.9Q190.3 210.3 190.0 210.9Q189.6 211.6 189.6 212.3L189.6 212.3L189.6 214.5Q189.6 215.4 190.0 216.1Q190.3 216.9 191.0 217.2Q191.7 217.6 192.6 217.6L192.6 217.6Q193.2 217.6 193.7 217.5Q194.2 217.3 194.6 216.9Q194.9 216.6 195.1 216.1L195.1 216.1L198.5 216.3Q198.2 217.5 197.4 218.4Q196.6 219.3 195.4 219.8Q194.1 220.3 192.5 220.3Z M208.9 225.0L205.3 225.0L205.3 207.0L208.9 207.0L208.9 209.2L209.0 209.2Q209.3 208.7 209.7 208.1Q210.2 207.6 210.9 207.2Q211.7 206.8 212.8 206.8L212.8 206.8Q214.2 206.8 215.4 207.6Q216.6 208.3 217.3 209.8Q218.1 211.3 218.1 213.5L218.1 213.5Q218.1 215.7 217.3 217.2Q216.6 218.7 215.4 219.5Q214.2 220.3 212.7 220.3L212.7 220.3Q211.7 220.3 210.9 219.9Q210.2 219.6 209.7 219.1Q209.3 218.5 209.0 218.0L209.0 218.0L208.9 218.0L208.9 225.0ZM208.8 213.5L208.8 213.5Q208.8 214.7 209.2 215.6Q209.5 216.4 210.1 216.9Q210.7 217.4 211.6 217.4L211.6 217.4Q212.5 217.4 213.1 216.9Q213.7 216.4 214.0 215.5Q214.3 214.7 214.3 213.5L214.3 213.5Q214.3 212.4 214.0 211.5Q213.7 210.7 213.1 210.2Q212.5 209.7 211.6 209.7L211.6 209.7Q210.7 209.7 210.1 210.2Q209.5 210.6 209.2 211.5Q208.8 212.4 208.8 213.5ZM219.6 202.6L223.2 202.6L223.2 220.1L219.6 220.1L219.6 202.6ZM228.9 220.3L228.9 220.3Q227.7 220.3 226.7 219.9Q225.7 219.4 225.1 218.6Q224.6 217.7 224.6 216.4L224.6 216.4Q224.6 215.3 225.0 214.6Q225.4 213.8 226.1 213.4Q226.8 212.9 227.6 212.7Q228.5 212.5 229.5 212.4L229.5 212.4Q230.6 212.3 231.3 212.2Q232.0 212.1 232.4 211.8Q232.7 211.6 232.7 211.2L232.7 211.2L232.7 211.2Q232.7 210.4 232.2 209.9Q231.7 209.5 230.7 209.5L230.7 209.5Q229.7 209.5 229.2 209.9Q228.6 210.3 228.4 211.0L228.4 211.0L225.0 210.7Q225.3 209.5 226.0 208.6Q226.8 207.8 228.0 207.3Q229.2 206.8 230.7 206.8L230.7 206.8Q231.8 206.8 232.8 207.1Q233.8 207.3 234.6 207.9Q235.4 208.4 235.8 209.2Q236.3 210.1 236.3 211.2L236.3 211.2L236.3 220.1L232.9 220.1L232.9 218.3L232.8 218.3Q232.4 218.9 231.9 219.3Q231.4 219.8 230.6 220.1Q229.9 220.3 228.9 220.3ZM230.0 217.8L230.0 217.8Q230.8 217.8 231.4 217.5Q232.0 217.2 232.3 216.6Q232.7 216.1 232.7 215.4L232.7 215.4L232.7 214.0Q232.5 214.1 232.2 214.2Q231.9 214.3 231.6 214.4Q231.2 214.4 230.8 214.5Q230.5 214.6 230.2 214.6L230.2 214.6Q229.5 214.7 229.1 214.9Q228.6 215.1 228.3 215.4Q228.0 215.8 228.0 216.3L228.0 216.3Q228.0 217.0 228.6 217.4Q229.1 217.8 230.0 217.8ZM237.3 207.0L245.2 207.0L245.2 209.7L237.3 209.7L237.3 207.0ZM239.1 216.5L239.1 203.9L242.7 203.9L242.7 216.1Q242.7 216.6 242.9 216.8Q243.0 217.1 243.3 217.2Q243.6 217.3 243.9 217.3L243.9 217.3Q244.2 217.3 244.5 217.3Q244.7 217.2 244.8 217.2L244.8 217.2L245.4 219.9Q245.1 220.0 244.7 220.1Q244.2 220.2 243.5 220.3L243.5 220.3Q242.1 220.3 241.2 219.9Q240.2 219.5 239.6 218.7Q239.1 217.8 239.1 216.5L239.1 216.5ZM245.6 207.0L253.7 207.0L253.7 209.7L245.6 209.7L245.6 207.0ZM251.1 220.1L247.5 220.1L247.5 206.0Q247.5 204.6 248.0 203.7Q248.6 202.7 249.5 202.3Q250.5 201.8 251.7 201.8L251.7 201.8Q252.6 201.8 253.3 201.9Q254.0 202.1 254.3 202.2L254.3 202.2L253.7 204.9Q253.5 204.8 253.1 204.8Q252.8 204.7 252.5 204.7L252.5 204.7Q251.7 204.7 251.4 205.1Q251.1 205.4 251.1 206.1L251.1 206.1L251.1 220.1ZM260.5 220.3L260.5 220.3Q258.5 220.3 257.0 219.5Q255.6 218.6 254.8 217.1Q254.0 215.6 254.0 213.6L254.0 213.6Q254.0 211.6 254.8 210.0Q255.6 208.5 257.0 207.7Q258.5 206.8 260.5 206.8L260.5 206.8Q262.4 206.8 263.9 207.7Q265.3 208.5 266.1 210.0Q266.9 211.6 266.9 213.6L266.9 213.6Q266.9 215.6 266.1 217.1Q265.3 218.6 263.9 219.5Q262.4 220.3 260.5 220.3ZM260.5 217.5L260.5 217.5Q261.4 217.5 262.0 217.0Q262.6 216.5 262.9 215.6Q263.2 214.7 263.2 213.6L263.2 213.6Q263.2 212.4 262.9 211.5Q262.6 210.6 262.0 210.1Q261.4 209.6 260.5 209.6L260.5 209.6Q259.6 209.6 258.9 210.1Q258.3 210.6 258.0 211.5Q257.7 212.4 257.7 213.6L257.7 213.6Q257.7 214.7 258.0 215.6Q258.3 216.5 258.9 217.0Q259.6 217.5 260.5 217.5ZM272.0 220.1L268.4 220.1L268.4 207.0L271.9 207.0L271.9 209.3L272.0 209.3Q272.4 208.1 273.2 207.4Q274.1 206.8 275.2 206.8L275.2 206.8Q275.4 206.8 275.8 206.8Q276.1 206.9 276.3 206.9L276.3 206.9L276.3 210.1Q276.1 210.1 275.6 210.0Q275.1 210.0 274.8 210.0L274.8 210.0Q274.0 210.0 273.3 210.3Q272.7 210.6 272.4 211.3Q272.0 211.9 272.0 212.7L272.0 212.7L272.0 220.1ZM280.9 220.1L277.3 220.1L277.3 207.0L280.7 207.0L280.7 209.3L280.9 209.3Q281.3 208.1 282.3 207.5Q283.2 206.8 284.5 206.8L284.5 206.8Q285.9 206.8 286.8 207.5Q287.8 208.2 288.1 209.3L288.1 209.3L288.2 209.3Q288.6 208.2 289.7 207.5Q290.7 206.8 292.2 206.8L292.2 206.8Q294.0 206.8 295.2 208.0Q296.3 209.1 296.3 211.3L296.3 211.3L296.3 220.1L292.7 220.1L292.7 212.0Q292.7 210.9 292.1 210.4Q291.5 209.8 290.6 209.8L290.6 209.8Q289.7 209.8 289.1 210.4Q288.6 211.1 288.6 212.1L288.6 212.1L288.6 220.1L285.0 220.1L285.0 211.9Q285.0 210.9 284.5 210.4Q283.9 209.8 283.0 209.8L283.0 209.8Q282.4 209.8 282.0 210.1Q281.5 210.4 281.2 211.0Q280.9 211.5 280.9 212.2L280.9 212.2L280.9 220.1Z M307.0 220.1L303.5 220.1L303.5 202.6L307.1 202.6L307.1 209.2L307.2 209.2Q307.4 208.7 307.9 208.1Q308.3 207.6 309.1 207.2Q309.8 206.8 310.9 206.8L310.9 206.8Q312.4 206.8 313.6 207.6Q314.8 208.3 315.5 209.8Q316.2 211.3 316.2 213.5L316.2 213.5Q316.2 215.7 315.5 217.2Q314.8 218.7 313.6 219.5Q312.4 220.3 310.9 220.3L310.9 220.3Q309.9 220.3 309.1 219.9Q308.4 219.6 307.9 219.1Q307.4 218.5 307.2 218.0L307.2 218.0L307.0 218.0L307.0 220.1ZM307.0 213.5L307.0 213.5Q307.0 214.7 307.3 215.6Q307.7 216.4 308.3 216.9Q308.9 217.4 309.8 217.4L309.8 217.4Q310.6 217.4 311.3 216.9Q311.9 216.4 312.2 215.5Q312.5 214.7 312.5 213.5L312.5 213.5Q312.5 212.4 312.2 211.5Q311.9 210.7 311.3 210.2Q310.7 209.7 309.8 209.7L309.8 209.7Q308.9 209.7 308.3 210.2Q307.7 210.6 307.3 211.5Q307.0 212.4 307.0 213.5ZM326.1 214.5L326.1 214.5L326.1 207.0L329.8 207.0L329.8 220.1L326.3 220.1L326.3 217.7L326.1 217.7Q325.7 218.9 324.7 219.5Q323.6 220.2 322.2 220.2L322.2 220.2Q320.9 220.2 319.9 219.7Q318.9 219.1 318.3 218.0Q317.7 216.9 317.7 215.3L317.7 215.3L317.7 207.0L321.4 207.0L321.4 214.7Q321.4 215.8 322.0 216.5Q322.6 217.2 323.6 217.2L323.6 217.2Q324.3 217.2 324.9 216.9Q325.4 216.6 325.8 216.0Q326.1 215.4 326.1 214.5ZM335.4 220.1L331.8 220.1L331.8 207.0L335.4 207.0L335.4 220.1ZM333.6 205.3L333.6 205.3Q332.8 205.3 332.2 204.8Q331.6 204.2 331.6 203.5L331.6 203.5Q331.6 202.7 332.2 202.2Q332.8 201.6 333.6 201.6L333.6 201.6Q334.4 201.6 335.0 202.2Q335.5 202.7 335.5 203.5L335.5 203.5Q335.5 204.2 335.0 204.8Q334.4 205.3 333.6 205.3ZM337.4 202.6L341.0 202.6L341.0 220.1L337.4 220.1L337.4 202.6ZM342.1 207.0L350.0 207.0L350.0 209.7L342.1 209.7L342.1 207.0ZM343.9 216.5L343.9 203.9L347.5 203.9L347.5 216.1Q347.5 216.6 347.7 216.8Q347.8 217.1 348.1 217.2Q348.4 217.3 348.7 217.3L348.7 217.3Q349.0 217.3 349.3 217.3Q349.5 217.2 349.6 217.2L349.6 217.2L350.2 219.9Q349.9 220.0 349.4 220.1Q349.0 220.2 348.2 220.3L348.2 220.3Q346.9 220.3 346.0 219.9Q345.0 219.5 344.4 218.7Q343.9 217.8 343.9 216.5L343.9 216.5Z M364.5 214.5L364.5 214.5L364.5 207.0L368.1 207.0L368.1 220.1L364.6 220.1L364.6 217.7L364.5 217.7Q364.1 218.9 363.0 219.5Q362.0 220.2 360.5 220.2L360.5 220.2Q359.2 220.2 358.2 219.7Q357.2 219.1 356.7 218.0Q356.1 216.9 356.1 215.3L356.1 215.3L356.1 207.0L359.7 207.0L359.7 214.7Q359.7 215.8 360.4 216.5Q361.0 217.2 362.0 217.2L362.0 217.2Q362.7 217.2 363.2 216.9Q363.8 216.6 364.2 216.0Q364.5 215.4 364.5 214.5ZM381.0 210.7L381.0 210.7L377.7 210.9Q377.6 210.5 377.3 210.2Q377.0 209.8 376.6 209.6Q376.1 209.4 375.5 209.4L375.5 209.4Q374.7 209.4 374.1 209.7Q373.5 210.1 373.5 210.7L373.5 210.7Q373.5 211.2 373.9 211.5Q374.3 211.8 375.2 212.0L375.2 212.0L377.5 212.5Q379.4 212.9 380.4 213.7Q381.3 214.6 381.3 216.0L381.3 216.0Q381.3 217.3 380.6 218.3Q379.8 219.3 378.5 219.8Q377.2 220.3 375.5 220.3L375.5 220.3Q372.9 220.3 371.4 219.2Q369.8 218.2 369.5 216.3L369.5 216.3L373.1 216.1Q373.3 216.9 373.9 217.3Q374.5 217.7 375.5 217.7L375.5 217.7Q376.5 217.7 377.0 217.3Q377.6 217.0 377.6 216.4L377.6 216.4Q377.6 215.9 377.2 215.6Q376.8 215.3 375.9 215.1L375.9 215.1L373.7 214.6Q371.8 214.2 370.8 213.3Q369.9 212.4 369.9 210.9L369.9 210.9Q369.9 209.6 370.6 208.7Q371.3 207.8 372.5 207.3Q373.8 206.8 375.4 206.8L375.4 206.8Q377.9 206.8 379.4 207.9Q380.8 208.9 381.0 210.7ZM386.3 220.1L382.7 220.1L382.7 207.0L386.3 207.0L386.3 220.1ZM384.5 205.3L384.5 205.3Q383.7 205.3 383.1 204.8Q382.6 204.2 382.6 203.5L382.6 203.5Q382.6 202.7 383.1 202.2Q383.7 201.6 384.5 201.6L384.5 201.6Q385.3 201.6 385.9 202.2Q386.5 202.7 386.5 203.5L386.5 203.5Q386.5 204.2 385.9 204.8Q385.3 205.3 384.5 205.3ZM392.0 212.5L392.0 212.5L392.0 220.1L388.3 220.1L388.3 207.0L391.8 207.0L391.8 209.3L392.0 209.3Q392.4 208.2 393.4 207.5Q394.4 206.8 395.9 206.8L395.9 206.8Q397.3 206.8 398.3 207.4Q399.3 208.0 399.8 209.1Q400.4 210.2 400.4 211.7L400.4 211.7L400.4 220.1L396.8 220.1L396.8 212.4Q396.8 211.2 396.2 210.5Q395.5 209.8 394.4 209.8L394.4 209.8Q393.7 209.8 393.2 210.1Q392.6 210.5 392.3 211.1Q392.0 211.7 392.0 212.5ZM408.3 225.3L408.3 225.3Q406.5 225.3 405.2 224.8Q404.0 224.3 403.2 223.5Q402.5 222.6 402.3 221.6L402.3 221.6L405.6 221.2Q405.8 221.6 406.1 221.9Q406.5 222.2 407.0 222.4Q407.6 222.7 408.3 222.7L408.3 222.7Q409.5 222.7 410.3 222.1Q411.1 221.5 411.1 220.2L411.1 220.2L411.1 217.8L410.9 217.8Q410.7 218.3 410.2 218.8Q409.7 219.3 409.0 219.6Q408.2 219.9 407.2 219.9L407.2 219.9Q405.7 219.9 404.5 219.2Q403.3 218.5 402.6 217.1Q401.9 215.7 401.9 213.5L401.9 213.5Q401.9 211.3 402.6 209.8Q403.3 208.3 404.5 207.6Q405.7 206.8 407.2 206.8L407.2 206.8Q408.3 206.8 409.0 207.2Q409.8 207.6 410.2 208.1Q410.7 208.7 410.9 209.2L410.9 209.2L411.1 209.2L411.1 207.0L414.7 207.0L414.7 220.2Q414.7 221.9 413.8 223.0Q413.0 224.1 411.6 224.7Q410.1 225.3 408.3 225.3ZM408.3 217.2L408.3 217.2Q409.2 217.2 409.8 216.7Q410.4 216.3 410.8 215.5Q411.1 214.6 411.1 213.5L411.1 213.5Q411.1 212.3 410.8 211.5Q410.4 210.6 409.8 210.2Q409.2 209.7 408.3 209.7L408.3 209.7Q407.4 209.7 406.8 210.2Q406.2 210.7 405.9 211.5Q405.6 212.4 405.6 213.5L405.6 213.5Q405.6 214.6 405.9 215.4Q406.2 216.3 406.8 216.7Q407.4 217.2 408.3 217.2Z M432.3 202.6L436.0 202.6L436.0 220.1L432.8 220.1L425.2 209.1L425.1 209.1L425.1 220.1L421.4 220.1L421.4 202.6L424.6 202.6L432.2 213.6L432.3 213.6L432.3 202.6ZM444.0 220.3L444.0 220.3Q442.0 220.3 440.6 219.5Q439.1 218.7 438.3 217.2Q437.5 215.7 437.5 213.6L437.5 213.6Q437.5 211.6 438.3 210.0Q439.1 208.5 440.5 207.7Q442.0 206.8 443.9 206.8L443.9 206.8Q445.2 206.8 446.3 207.2Q447.4 207.6 448.3 208.5Q449.1 209.3 449.6 210.5Q450.0 211.8 450.0 213.5L450.0 213.5L450.0 214.5L439.0 214.5L439.0 212.2L446.6 212.2Q446.6 211.4 446.3 210.8Q445.9 210.2 445.3 209.9Q444.7 209.5 443.9 209.5L443.9 209.5Q443.1 209.5 442.5 209.9Q441.8 210.3 441.5 210.9Q441.1 211.6 441.1 212.3L441.1 212.3L441.1 214.5Q441.1 215.4 441.5 216.1Q441.8 216.9 442.5 217.2Q443.2 217.6 444.1 217.6L444.1 217.6Q444.7 217.6 445.2 217.5Q445.7 217.3 446.1 216.9Q446.4 216.6 446.6 216.1L446.6 216.1L450.0 216.3Q449.7 217.5 448.9 218.4Q448.1 219.3 446.9 219.8Q445.7 220.3 444.0 220.3ZM450.6 207.0L454.3 207.0L456.7 211.6L459.2 207.0L462.9 207.0L459.1 213.5L463.0 220.1L459.3 220.1L456.7 215.6L454.2 220.1L450.4 220.1L454.3 213.5L450.6 207.0ZM463.2 207.0L471.1 207.0L471.1 209.7L463.2 209.7L463.2 207.0ZM465.0 216.5L465.0 203.9L468.7 203.9L468.7 216.1Q468.7 216.6 468.8 216.8Q469.0 217.1 469.2 217.2Q469.5 217.3 469.9 217.3L469.9 217.3Q470.1 217.3 470.4 217.3Q470.7 217.2 470.8 217.2L470.8 217.2L471.4 219.9Q471.1 220.0 470.6 220.1Q470.1 220.2 469.4 220.3L469.4 220.3Q468.1 220.3 467.1 219.9Q466.1 219.5 465.6 218.7Q465.0 217.8 465.0 216.5L465.0 216.5ZM472.6 220.7L472.6 207.0L476.2 207.0L476.2 220.7Q476.2 222.2 475.6 223.2Q475.0 224.1 473.9 224.6Q472.8 225.0 471.3 225.0L471.3 225.0Q471.1 225.0 470.9 225.0Q470.7 225.0 470.5 225.0L470.5 225.0L470.5 222.1Q470.7 222.1 470.8 222.1Q470.9 222.1 471.0 222.1L471.0 222.1Q471.9 222.1 472.2 221.8Q472.6 221.4 472.6 220.7L472.6 220.7ZM474.4 205.3L474.4 205.3Q473.6 205.3 473.0 204.8Q472.4 204.2 472.4 203.5L472.4 203.5Q472.4 202.7 473.0 202.2Q473.6 201.6 474.4 201.6L474.4 201.6Q475.2 201.6 475.8 202.2Q476.4 202.7 476.4 203.5L476.4 203.5Q476.4 204.2 475.8 204.8Q475.2 205.3 474.4 205.3ZM489.1 210.7L489.1 210.7L485.8 210.9Q485.7 210.5 485.4 210.2Q485.1 209.8 484.7 209.6Q484.2 209.4 483.6 209.4L483.6 209.4Q482.7 209.4 482.2 209.7Q481.6 210.1 481.6 210.7L481.6 210.7Q481.6 211.2 482.0 211.5Q482.3 211.8 483.2 212.0L483.2 212.0L485.6 212.5Q487.5 212.9 488.5 213.7Q489.4 214.6 489.4 216.0L489.4 216.0Q489.4 217.3 488.6 218.3Q487.9 219.3 486.6 219.8Q485.3 220.3 483.6 220.3L483.6 220.3Q481.0 220.3 479.4 219.2Q477.9 218.2 477.6 216.3L477.6 216.3L481.2 216.1Q481.4 216.9 482.0 217.3Q482.6 217.7 483.6 217.7L483.6 217.7Q484.5 217.7 485.1 217.3Q485.7 217.0 485.7 216.4L485.7 216.4Q485.7 215.9 485.3 215.6Q484.9 215.3 484.0 215.1L484.0 215.1L481.8 214.6Q479.8 214.2 478.9 213.3Q478.0 212.4 478.0 210.9L478.0 210.9Q478.0 209.6 478.7 208.7Q479.4 207.8 480.6 207.3Q481.9 206.8 483.5 206.8L483.5 206.8Q486.0 206.8 487.4 207.9Q488.9 208.9 489.1 210.7ZM491.7 217.7L494.7 217.7L494.6 218.6Q494.5 219.8 494.2 220.9Q493.9 222.0 493.6 222.9Q493.2 223.8 493.0 224.3L493.0 224.3L490.7 224.3Q490.8 223.8 491.0 222.9Q491.3 222.0 491.5 220.9Q491.6 219.8 491.7 218.6L491.7 218.6L491.7 217.7Z M505.8 220.1L502.1 220.1L502.1 202.6L509.0 202.6Q511.0 202.6 512.4 203.3Q513.8 204.0 514.5 205.3Q515.3 206.6 515.3 208.3L515.3 208.3Q515.3 210.1 514.5 211.3Q513.8 212.6 512.3 213.2Q510.9 213.9 508.9 213.9L508.9 213.9L504.3 213.9L504.3 210.9L508.3 210.9Q509.4 210.9 510.1 210.6Q510.8 210.3 511.1 209.8Q511.5 209.2 511.5 208.3L511.5 208.3Q511.5 207.5 511.1 206.9Q510.8 206.3 510.1 206.0Q509.4 205.6 508.3 205.6L508.3 205.6L505.8 205.6L505.8 220.1ZM507.6 212.1L511.5 212.1L515.9 220.1L511.8 220.1L507.6 212.1ZM522.6 220.3L522.6 220.3Q520.6 220.3 519.2 219.5Q517.7 218.7 516.9 217.2Q516.2 215.7 516.2 213.6L516.2 213.6Q516.2 211.6 516.9 210.0Q517.7 208.5 519.1 207.7Q520.6 206.8 522.5 206.8L522.5 206.8Q523.8 206.8 524.9 207.2Q526.0 207.6 526.9 208.5Q527.7 209.3 528.2 210.5Q528.7 211.8 528.7 213.5L528.7 213.5L528.7 214.5L517.6 214.5L517.6 212.2L525.2 212.2Q525.2 211.4 524.9 210.8Q524.6 210.2 524.0 209.9Q523.4 209.5 522.6 209.5L522.6 209.5Q521.7 209.5 521.1 209.9Q520.5 210.3 520.1 210.9Q519.7 211.6 519.7 212.3L519.7 212.3L519.7 214.5Q519.7 215.4 520.1 216.1Q520.5 216.9 521.1 217.2Q521.8 217.6 522.7 217.6L522.7 217.6Q523.3 217.6 523.8 217.5Q524.3 217.3 524.7 216.9Q525.0 216.6 525.2 216.1L525.2 216.1L528.6 216.3Q528.3 217.5 527.5 218.4Q526.7 219.3 525.5 219.8Q524.3 220.3 522.6 220.3ZM533.9 220.3L533.9 220.3Q532.6 220.3 531.6 219.9Q530.6 219.4 530.1 218.6Q529.5 217.7 529.5 216.4L529.5 216.4Q529.5 215.3 529.9 214.6Q530.3 213.8 531.0 213.4Q531.7 212.9 532.6 212.7Q533.5 212.5 534.4 212.4L534.4 212.4Q535.6 212.3 536.3 212.2Q537.0 212.1 537.3 211.8Q537.6 211.6 537.6 211.2L537.6 211.2L537.6 211.2Q537.6 210.4 537.1 209.9Q536.6 209.5 535.7 209.5L535.7 209.5Q534.7 209.5 534.1 209.9Q533.5 210.3 533.3 211.0L533.3 211.0L530.0 210.7Q530.2 209.5 531.0 208.6Q531.7 207.8 532.9 207.3Q534.1 206.8 535.7 206.8L535.7 206.8Q536.8 206.8 537.8 207.1Q538.8 207.3 539.5 207.9Q540.3 208.4 540.8 209.2Q541.2 210.1 541.2 211.2L541.2 211.2L541.2 220.1L537.8 220.1L537.8 218.3L537.7 218.3Q537.4 218.9 536.8 219.3Q536.3 219.8 535.6 220.1Q534.8 220.3 533.9 220.3ZM534.9 217.8L534.9 217.8Q535.7 217.8 536.3 217.5Q536.9 217.2 537.3 216.6Q537.6 216.1 537.6 215.4L537.6 215.4L537.6 214.0Q537.5 214.1 537.2 214.2Q536.9 214.3 536.5 214.4Q536.1 214.4 535.8 214.5Q535.4 214.6 535.1 214.6L535.1 214.6Q534.5 214.7 534.0 214.9Q533.5 215.1 533.2 215.4Q533.0 215.8 533.0 216.3L533.0 216.3Q533.0 217.0 533.5 217.4Q534.1 217.8 534.9 217.8ZM549.1 220.3L549.1 220.3Q547.1 220.3 545.6 219.5Q544.2 218.6 543.4 217.1Q542.6 215.6 542.6 213.6L542.6 213.6Q542.6 211.6 543.4 210.1Q544.2 208.5 545.6 207.7Q547.1 206.8 549.0 206.8L549.0 206.8Q550.8 206.8 552.0 207.4Q553.3 208.1 554.1 209.2Q554.8 210.3 554.9 211.8L554.9 211.8L551.5 211.8Q551.3 210.8 550.7 210.2Q550.1 209.6 549.1 209.6L549.1 209.6Q548.3 209.6 547.6 210.1Q547.0 210.6 546.7 211.4Q546.3 212.3 546.3 213.5L546.3 213.5Q546.3 214.8 546.7 215.7Q547.0 216.5 547.6 217.0Q548.3 217.5 549.1 217.5L549.1 217.5Q549.7 217.5 550.2 217.2Q550.7 216.9 551.1 216.5Q551.4 216.0 551.5 215.3L551.5 215.3L554.9 215.3Q554.8 216.8 554.1 217.9Q553.4 219.1 552.1 219.7Q550.8 220.3 549.1 220.3ZM555.4 207.0L563.3 207.0L563.3 209.7L555.4 209.7L555.4 207.0ZM557.2 216.5L557.2 203.9L560.8 203.9L560.8 216.1Q560.8 216.6 561.0 216.8Q561.2 217.1 561.4 217.2Q561.7 217.3 562.1 217.3L562.1 217.3Q562.3 217.3 562.6 217.3Q562.8 217.2 563.0 217.2L563.0 217.2L563.5 219.9Q563.3 220.0 562.8 220.1Q562.3 220.2 561.6 220.3L561.6 220.3Q560.3 220.3 559.3 219.9Q558.3 219.5 557.8 218.7Q557.2 217.8 557.2 216.5L557.2 216.5ZM565.7 217.7L568.7 217.7L568.6 218.6Q568.5 219.8 568.2 220.9Q567.9 222.0 567.6 222.9Q567.2 223.8 567.0 224.3L567.0 224.3L564.7 224.3Q564.8 223.8 565.0 222.9Q565.2 222.0 565.4 220.9Q565.6 219.8 565.7 218.6L565.7 218.6L565.7 217.7Z M580.8 205.7L575.4 205.7L575.4 202.6L589.8 202.6L589.8 205.7L584.4 205.7L584.4 220.1L580.8 220.1L580.8 205.7ZM591.9 225.0L591.9 225.0Q591.2 225.0 590.6 224.9Q590.0 224.8 589.6 224.6L589.6 224.6L590.4 221.9Q591.1 222.1 591.6 222.1Q592.1 222.1 592.5 221.9Q592.9 221.6 593.1 221.0L593.1 221.0L593.3 220.5L588.6 207.0L592.4 207.0L595.2 216.6L595.3 216.6L598.0 207.0L601.9 207.0L596.8 221.5Q596.4 222.5 595.8 223.3Q595.2 224.1 594.2 224.6Q593.3 225.0 591.9 225.0ZM606.5 225.0L602.8 225.0L602.8 207.0L606.4 207.0L606.4 209.2L606.6 209.2Q606.8 208.7 607.3 208.1Q607.7 207.6 608.5 207.2Q609.2 206.8 610.3 206.8L610.3 206.8Q611.7 206.8 612.9 207.6Q614.1 208.3 614.9 209.8Q615.6 211.3 615.6 213.5L615.6 213.5Q615.6 215.7 614.9 217.2Q614.2 218.7 613.0 219.5Q611.8 220.3 610.3 220.3L610.3 220.3Q609.2 220.3 608.5 219.9Q607.8 219.6 607.3 219.1Q606.8 218.5 606.6 218.0L606.6 218.0L606.5 218.0L606.5 225.0ZM606.4 213.5L606.4 213.5Q606.4 214.7 606.7 215.6Q607.0 216.4 607.6 216.9Q608.3 217.4 609.1 217.4L609.1 217.4Q610.0 217.4 610.6 216.9Q611.3 216.4 611.6 215.5Q611.9 214.7 611.9 213.5L611.9 213.5Q611.9 212.4 611.6 211.5Q611.3 210.7 610.6 210.2Q610.0 209.7 609.1 209.7L609.1 209.7Q608.3 209.7 607.6 210.2Q607.0 210.6 606.7 211.5Q606.4 212.4 606.4 213.5ZM623.1 220.3L623.1 220.3Q621.1 220.3 619.6 219.5Q618.1 218.7 617.4 217.2Q616.6 215.7 616.6 213.6L616.6 213.6Q616.6 211.6 617.4 210.0Q618.1 208.5 619.6 207.7Q621.0 206.8 622.9 206.8L622.9 206.8Q624.2 206.8 625.3 207.2Q626.5 207.6 627.3 208.5Q628.1 209.3 628.6 210.5Q629.1 211.8 629.1 213.5L629.1 213.5L629.1 214.5L618.0 214.5L618.0 212.2L625.7 212.2Q625.7 211.4 625.3 210.8Q625.0 210.2 624.4 209.9Q623.8 209.5 623.0 209.5L623.0 209.5Q622.2 209.5 621.5 209.9Q620.9 210.3 620.5 210.9Q620.2 211.6 620.2 212.3L620.2 212.3L620.2 214.5Q620.2 215.4 620.5 216.1Q620.9 216.9 621.6 217.2Q622.2 217.6 623.1 217.6L623.1 217.6Q623.7 217.6 624.2 217.5Q624.7 217.3 625.1 216.9Q625.5 216.6 625.6 216.1L625.6 216.1L629.0 216.3Q628.8 217.5 628.0 218.4Q627.2 219.3 625.9 219.8Q624.7 220.3 623.1 220.3ZM643.6 207.6L640.1 207.6Q640.0 206.6 639.2 206.0Q638.4 205.5 637.1 205.5L637.1 205.5Q636.2 205.5 635.6 205.7Q635.0 206.0 634.6 206.4Q634.3 206.9 634.3 207.4L634.3 207.4Q634.3 207.9 634.5 208.2Q634.7 208.6 635.1 208.8Q635.5 209.1 636.0 209.3Q636.5 209.5 637.1 209.6L637.1 209.6L638.6 210.0Q639.8 210.2 640.7 210.6Q641.7 211.1 642.4 211.7Q643.1 212.3 643.5 213.2Q643.9 214.0 643.9 215.1L643.9 215.1Q643.9 216.7 643.1 217.9Q642.2 219.0 640.7 219.7Q639.2 220.3 637.1 220.3L637.1 220.3Q635.0 220.3 633.4 219.7Q631.8 219.0 631.0 217.8Q630.1 216.5 630.1 214.6L630.1 214.6L633.6 214.6Q633.7 215.5 634.1 216.1Q634.6 216.6 635.3 216.9Q636.1 217.2 637.0 217.2L637.0 217.2Q638.0 217.2 638.7 217.0Q639.4 216.7 639.8 216.2Q640.1 215.7 640.1 215.1L640.1 215.1Q640.1 214.5 639.8 214.1Q639.5 213.7 638.8 213.4Q638.1 213.1 637.2 212.9L637.2 212.9L635.3 212.4Q633.1 211.9 631.8 210.7Q630.5 209.6 630.5 207.7L630.5 207.7Q630.5 206.1 631.4 204.9Q632.2 203.7 633.7 203.0Q635.2 202.4 637.1 202.4L637.1 202.4Q639.1 202.4 640.5 203.0Q642.0 203.7 642.8 204.9Q643.6 206.1 643.6 207.6L643.6 207.6ZM651.3 220.3L651.3 220.3Q649.3 220.3 647.8 219.5Q646.4 218.6 645.6 217.1Q644.8 215.6 644.8 213.6L644.8 213.6Q644.8 211.6 645.6 210.1Q646.4 208.5 647.8 207.7Q649.3 206.8 651.3 206.8L651.3 206.8Q653.0 206.8 654.3 207.4Q655.6 208.1 656.3 209.2Q657.1 210.3 657.1 211.8L657.1 211.8L653.7 211.8Q653.6 210.8 652.9 210.2Q652.3 209.6 651.3 209.6L651.3 209.6Q650.5 209.6 649.9 210.1Q649.2 210.6 648.9 211.4Q648.5 212.3 648.5 213.5L648.5 213.5Q648.5 214.8 648.9 215.7Q649.2 216.5 649.9 217.0Q650.5 217.5 651.3 217.5L651.3 217.5Q651.9 217.5 652.4 217.2Q652.9 216.9 653.3 216.5Q653.6 216.0 653.7 215.3L653.7 215.3L657.1 215.3Q657.0 216.8 656.3 217.9Q655.6 219.1 654.3 219.7Q653.0 220.3 651.3 220.3ZM662.2 220.1L658.6 220.1L658.6 207.0L662.1 207.0L662.1 209.3L662.2 209.3Q662.6 208.1 663.4 207.4Q664.3 206.8 665.4 206.8L665.4 206.8Q665.6 206.8 666.0 206.8Q666.3 206.9 666.5 206.9L666.5 206.9L666.5 210.1Q666.3 210.1 665.8 210.0Q665.3 210.0 665.0 210.0L665.0 210.0Q664.2 210.0 663.5 210.3Q662.9 210.6 662.6 211.3Q662.2 211.9 662.2 212.7L662.2 212.7L662.2 220.1ZM671.1 220.1L667.5 220.1L667.5 207.0L671.1 207.0L671.1 220.1ZM669.3 205.3L669.3 205.3Q668.5 205.3 667.9 204.8Q667.3 204.2 667.3 203.5L667.3 203.5Q667.3 202.7 667.9 202.2Q668.5 201.6 669.3 201.6L669.3 201.6Q670.1 201.6 670.7 202.2Q671.3 202.7 671.3 203.5L671.3 203.5Q671.3 204.2 670.7 204.8Q670.1 205.3 669.3 205.3ZM676.7 225.0L673.1 225.0L673.1 207.0L676.7 207.0L676.7 209.2L676.8 209.2Q677.1 208.7 677.5 208.1Q678.0 207.6 678.7 207.2Q679.5 206.8 680.6 206.8L680.6 206.8Q682.0 206.8 683.2 207.6Q684.4 208.3 685.1 209.8Q685.9 211.3 685.9 213.5L685.9 213.5Q685.9 215.7 685.2 217.2Q684.5 218.7 683.3 219.5Q682.1 220.3 680.6 220.3L680.6 220.3Q679.5 220.3 678.8 219.9Q678.0 219.6 677.6 219.1Q677.1 218.5 676.8 218.0L676.8 218.0L676.7 218.0L676.7 225.0ZM676.7 213.5L676.7 213.5Q676.7 214.7 677.0 215.6Q677.3 216.4 677.9 216.9Q678.5 217.4 679.4 217.4L679.4 217.4Q680.3 217.4 680.9 216.9Q681.5 216.4 681.8 215.5Q682.2 214.7 682.2 213.5L682.2 213.5Q682.2 212.4 681.8 211.5Q681.5 210.7 680.9 210.2Q680.3 209.7 679.4 209.7L679.4 209.7Q678.5 209.7 677.9 210.2Q677.3 210.6 677.0 211.5Q676.7 212.4 676.7 213.5ZM686.5 207.0L694.3 207.0L694.3 209.7L686.5 209.7L686.5 207.0ZM688.3 216.5L688.3 203.9L691.9 203.9L691.9 216.1Q691.9 216.6 692.0 216.8Q692.2 217.1 692.5 217.2Q692.7 217.3 693.1 217.3L693.1 217.3Q693.4 217.3 693.6 217.3Q693.9 217.2 694.0 217.2L694.0 217.2L694.6 219.9Q694.3 220.0 693.8 220.1Q693.3 220.2 692.6 220.3L692.6 220.3Q691.3 220.3 690.3 219.9Q689.3 219.5 688.8 218.7Q688.2 217.8 688.3 216.5L688.3 216.5ZM696.8 217.7L699.8 217.7L699.7 218.6Q699.5 219.8 699.2 220.9Q698.9 222.0 698.6 222.9Q698.3 223.8 698.0 224.3L698.0 224.3L695.7 224.3Q695.8 223.8 696.0 222.9Q696.3 222.0 696.5 220.9Q696.7 219.8 696.7 218.6L696.7 218.6L696.8 217.7Z M37.2 252.4L33.5 252.4L33.5 234.9L40.4 234.9Q42.4 234.9 43.8 235.7Q45.2 236.4 45.9 237.7Q46.7 239.1 46.7 240.8L46.7 240.8Q46.7 242.5 45.9 243.9Q45.2 245.2 43.7 245.9Q42.3 246.7 40.3 246.7L40.3 246.7L35.9 246.7L35.9 243.7L39.7 243.7Q40.8 243.7 41.5 243.4Q42.2 243.0 42.5 242.3Q42.9 241.7 42.9 240.8L42.9 240.8Q42.9 239.9 42.5 239.3Q42.2 238.6 41.5 238.3Q40.8 237.9 39.7 237.9L39.7 237.9L37.2 237.9L37.2 252.4ZM51.7 252.4L48.1 252.4L48.1 239.3L51.6 239.3L51.6 241.5L51.8 241.5Q52.1 240.3 53.0 239.7Q53.8 239.1 54.9 239.1L54.9 239.1Q55.2 239.1 55.5 239.1Q55.8 239.1 56.0 239.2L56.0 239.2L56.0 242.4Q55.8 242.3 55.3 242.3Q54.9 242.2 54.5 242.2L54.5 242.2Q53.7 242.2 53.1 242.6Q52.4 242.9 52.1 243.5Q51.7 244.1 51.7 244.9L51.7 244.9L51.7 252.4ZM60.6 252.4L57.0 252.4L57.0 239.3L60.6 239.3L60.6 252.4ZM58.8 237.6L58.8 237.6Q58.0 237.6 57.4 237.0Q56.9 236.5 56.9 235.7L56.9 235.7Q56.9 235.0 57.4 234.4Q58.0 233.9 58.8 233.9L58.8 233.9Q59.6 233.9 60.2 234.4Q60.8 235.0 60.8 235.7L60.8 235.7Q60.8 236.5 60.2 237.0Q59.6 237.6 58.8 237.6ZM73.5 243.0L73.5 243.0L70.2 243.2Q70.1 242.8 69.8 242.4Q69.6 242.1 69.1 241.9Q68.6 241.7 68.0 241.7L68.0 241.7Q67.2 241.7 66.6 242.0Q66.0 242.4 66.0 243.0L66.0 243.0Q66.0 243.4 66.4 243.8Q66.8 244.1 67.7 244.3L67.7 244.3L70.0 244.7Q71.9 245.1 72.9 246.0Q73.8 246.9 73.8 248.3L73.8 248.3Q73.8 249.6 73.1 250.6Q72.3 251.5 71.0 252.1Q69.7 252.6 68.0 252.6L68.0 252.6Q65.4 252.6 63.9 251.5Q62.3 250.4 62.1 248.6L62.1 248.6L65.6 248.4Q65.8 249.2 66.4 249.6Q67.0 250.0 68.0 250.0L68.0 250.0Q69.0 250.0 69.5 249.6Q70.1 249.2 70.1 248.7L70.1 248.7Q70.1 248.2 69.7 247.8Q69.3 247.5 68.5 247.4L68.5 247.4L66.2 246.9Q64.3 246.5 63.3 245.6Q62.4 244.6 62.4 243.2L62.4 243.2Q62.4 241.9 63.1 241.0Q63.8 240.1 65.0 239.6Q66.3 239.1 68.0 239.1L68.0 239.1Q70.4 239.1 71.9 240.1Q73.3 241.2 73.5 243.0ZM78.8 252.4L75.2 252.4L75.2 239.3L78.7 239.3L78.7 241.6L78.8 241.6Q79.2 240.4 80.2 239.8Q81.1 239.1 82.5 239.1L82.5 239.1Q83.8 239.1 84.8 239.8Q85.7 240.4 86.0 241.6L86.0 241.6L86.2 241.6Q86.6 240.4 87.6 239.8Q88.7 239.1 90.1 239.1L90.1 239.1Q91.9 239.1 93.1 240.3Q94.2 241.4 94.2 243.5L94.2 243.5L94.2 252.4L90.6 252.4L90.6 244.3Q90.6 243.2 90.0 242.6Q89.5 242.1 88.6 242.1L88.6 242.1Q87.6 242.1 87.0 242.7Q86.5 243.3 86.5 244.4L86.5 244.4L86.5 252.4L83.0 252.4L83.0 244.2Q83.0 243.2 82.4 242.7Q81.9 242.1 81.0 242.1L81.0 242.1Q80.4 242.1 79.9 242.4Q79.4 242.7 79.1 243.2Q78.8 243.8 78.8 244.5L78.8 244.5L78.8 252.4ZM99.9 252.6L99.9 252.6Q98.7 252.6 97.7 252.2Q96.7 251.7 96.2 250.9Q95.6 250.0 95.6 248.7L95.6 248.7Q95.6 247.6 96.0 246.9Q96.4 246.1 97.1 245.7Q97.8 245.2 98.7 245.0Q99.5 244.8 100.5 244.7L100.5 244.7Q101.6 244.5 102.3 244.4Q103.0 244.3 103.4 244.1Q103.7 243.9 103.7 243.5L103.7 243.5L103.7 243.4Q103.7 242.6 103.2 242.2Q102.7 241.7 101.7 241.7L101.7 241.7Q100.8 241.7 100.2 242.2Q99.6 242.6 99.4 243.2L99.4 243.2L96.0 243.0Q96.3 241.8 97.1 240.9Q97.8 240.0 99.0 239.6Q100.2 239.1 101.8 239.1L101.8 239.1Q102.8 239.1 103.8 239.3Q104.8 239.6 105.6 240.1Q106.4 240.7 106.9 241.5Q107.3 242.4 107.3 243.5L107.3 243.5L107.3 252.4L103.9 252.4L103.9 250.5L103.8 250.5Q103.4 251.1 102.9 251.6Q102.4 252.1 101.6 252.3Q100.9 252.6 99.9 252.6ZM101.0 250.1L101.0 250.1Q101.8 250.1 102.4 249.8Q103.0 249.5 103.4 248.9Q103.7 248.4 103.7 247.7L103.7 247.7L103.7 246.3Q103.5 246.4 103.2 246.5Q102.9 246.6 102.6 246.6Q102.2 246.7 101.8 246.8Q101.5 246.8 101.2 246.9L101.2 246.9Q100.5 247.0 100.1 247.2Q99.6 247.4 99.3 247.7Q99.1 248.1 99.1 248.6L99.1 248.6Q99.1 249.3 99.6 249.7Q100.1 250.1 101.0 250.1ZM110.2 250.0L113.2 250.0L113.1 250.9Q113.0 252.0 112.7 253.1Q112.3 254.3 112.0 255.2Q111.7 256.1 111.5 256.6L111.5 256.6L109.1 256.6Q109.2 256.1 109.5 255.2Q109.7 254.3 109.9 253.2Q110.1 252.1 110.1 250.9L110.1 250.9L110.2 250.0Z M125.0 237.9L119.7 237.9L119.7 234.9L134.0 234.9L134.0 237.9L128.7 237.9L128.7 252.4L125.0 252.4L125.0 237.9ZM137.4 252.6L137.4 252.6Q136.1 252.6 135.1 252.2Q134.1 251.7 133.6 250.9Q133.0 250.0 133.0 248.7L133.0 248.7Q133.0 247.6 133.4 246.9Q133.8 246.1 134.5 245.7Q135.2 245.2 136.1 245.0Q137.0 244.8 137.9 244.7L137.9 244.7Q139.1 244.5 139.8 244.4Q140.5 244.3 140.8 244.1Q141.1 243.9 141.1 243.5L141.1 243.5L141.1 243.4Q141.1 242.6 140.6 242.2Q140.1 241.7 139.2 241.7L139.2 241.7Q138.2 241.7 137.6 242.2Q137.0 242.6 136.8 243.2L136.8 243.2L133.5 243.0Q133.7 241.8 134.5 240.9Q135.2 240.0 136.4 239.6Q137.6 239.1 139.2 239.1L139.2 239.1Q140.3 239.1 141.3 239.3Q142.3 239.6 143.1 240.1Q143.8 240.7 144.3 241.5Q144.7 242.4 144.7 243.5L144.7 243.5L144.7 252.4L141.3 252.4L141.3 250.5L141.2 250.5Q140.9 251.1 140.3 251.6Q139.8 252.1 139.1 252.3Q138.3 252.6 137.4 252.6ZM138.4 250.1L138.4 250.1Q139.2 250.1 139.8 249.8Q140.4 249.5 140.8 248.9Q141.1 248.4 141.1 247.7L141.1 247.7L141.1 246.3Q141.0 246.4 140.7 246.5Q140.4 246.6 140.0 246.6Q139.6 246.7 139.3 246.8Q138.9 246.8 138.6 246.9L138.6 246.9Q138.0 247.0 137.5 247.2Q137.0 247.4 136.7 247.7Q136.5 248.1 136.5 248.6L136.5 248.6Q136.5 249.3 137.0 249.7Q137.6 250.1 138.4 250.1ZM150.3 252.4L146.7 252.4L146.7 239.3L150.3 239.3L150.3 252.4ZM148.5 237.6L148.5 237.6Q147.7 237.6 147.1 237.0Q146.5 236.5 146.5 235.7L146.5 235.7Q146.5 235.0 147.1 234.4Q147.7 233.9 148.5 233.9L148.5 233.9Q149.3 233.9 149.9 234.4Q150.4 235.0 150.4 235.7L150.4 235.7Q150.4 236.5 149.9 237.0Q149.3 237.6 148.5 237.6ZM152.3 234.9L155.9 234.9L155.9 252.4L152.3 252.4L152.3 234.9ZM164.3 252.4L160.5 252.4L156.9 239.3L160.6 239.3L162.6 248.1L162.8 248.1L164.9 239.3L168.5 239.3L170.6 248.0L170.7 248.0L172.7 239.3L176.4 239.3L172.8 252.4L169.0 252.4L166.7 244.1L166.6 244.1L164.3 252.4ZM181.0 252.4L177.4 252.4L177.4 239.3L181.0 239.3L181.0 252.4ZM179.2 237.6L179.2 237.6Q178.4 237.6 177.9 237.0Q177.3 236.5 177.3 235.7L177.3 235.7Q177.3 235.0 177.9 234.4Q178.4 233.9 179.2 233.9L179.2 233.9Q180.0 233.9 180.6 234.4Q181.2 235.0 181.2 235.7L181.2 235.7Q181.2 236.5 180.6 237.0Q180.0 237.6 179.2 237.6ZM186.7 244.8L186.7 244.8L186.7 252.4L183.0 252.4L183.0 239.3L186.5 239.3L186.5 241.6L186.7 241.6Q187.1 240.4 188.1 239.8Q189.1 239.1 190.6 239.1L190.6 239.1Q192.0 239.1 193.0 239.7Q194.0 240.3 194.6 241.4Q195.1 242.5 195.1 244.0L195.1 244.0L195.1 252.4L191.5 252.4L191.5 244.7Q191.5 243.5 190.9 242.8Q190.2 242.1 189.2 242.1L189.2 242.1Q188.4 242.1 187.9 242.4Q187.3 242.7 187.0 243.3Q186.7 243.9 186.7 244.8ZM201.9 252.6L201.9 252.6Q200.4 252.6 199.2 251.8Q198.0 251.0 197.3 249.5Q196.6 248.0 196.6 245.8L196.6 245.8Q196.6 243.6 197.3 242.1Q198.0 240.6 199.2 239.8Q200.4 239.1 201.9 239.1L201.9 239.1Q203.0 239.1 203.7 239.5Q204.5 239.8 204.9 240.4Q205.4 240.9 205.6 241.5L205.6 241.5L205.7 241.5L205.7 234.9L209.3 234.9L209.3 252.4L205.8 252.4L205.8 250.3L205.6 250.3Q205.4 250.8 204.9 251.3Q204.4 251.9 203.7 252.2Q202.9 252.6 201.9 252.6ZM203.0 249.7L203.0 249.7Q203.9 249.7 204.5 249.2Q205.1 248.7 205.5 247.8Q205.8 247.0 205.8 245.8L205.8 245.8Q205.8 244.6 205.5 243.8Q205.1 242.9 204.5 242.4Q203.9 242.0 203.0 242.0L203.0 242.0Q202.1 242.0 201.5 242.5Q200.9 242.9 200.6 243.8Q200.3 244.7 200.3 245.8L200.3 245.8Q200.3 246.9 200.6 247.8Q200.9 248.7 201.5 249.2Q202.1 249.7 203.0 249.7ZM226.9 241.0L226.9 241.0L223.2 241.0Q223.0 240.3 222.7 239.7Q222.4 239.1 221.9 238.7Q221.4 238.3 220.8 238.1Q220.1 237.9 219.4 237.9L219.4 237.9Q218.0 237.9 217.0 238.6Q216.0 239.3 215.5 240.5Q214.9 241.8 214.9 243.6L214.9 243.6Q214.9 245.5 215.5 246.8Q216.0 248.0 217.0 248.7Q218.0 249.3 219.4 249.3L219.4 249.3Q220.1 249.3 220.7 249.1Q221.4 248.9 221.9 248.6Q222.4 248.2 222.7 247.6Q223.0 247.1 223.2 246.4L223.2 246.4L226.9 246.4Q226.7 247.6 226.2 248.7Q225.6 249.8 224.6 250.7Q223.7 251.6 222.3 252.1Q221.0 252.6 219.3 252.6L219.3 252.6Q217.0 252.6 215.1 251.5Q213.3 250.5 212.2 248.5Q211.2 246.5 211.2 243.6L211.2 243.6Q211.2 240.8 212.3 238.8Q213.3 236.8 215.2 235.7Q217.0 234.7 219.3 234.7L219.3 234.7Q220.8 234.7 222.1 235.1Q223.4 235.5 224.4 236.3Q225.4 237.1 226.1 238.3Q226.7 239.5 226.9 241.0ZM241.6 239.9L238.1 239.9Q238.0 238.9 237.2 238.3Q236.4 237.7 235.1 237.7L235.1 237.7Q234.2 237.7 233.6 238.0Q233.0 238.2 232.6 238.7Q232.3 239.1 232.3 239.7L232.3 239.7Q232.3 240.2 232.5 240.5Q232.7 240.9 233.1 241.1Q233.5 241.4 234.0 241.5Q234.5 241.7 235.1 241.9L235.1 241.9L236.6 242.2Q237.8 242.5 238.7 242.9Q239.7 243.3 240.4 244.0Q241.1 244.6 241.5 245.4Q241.9 246.3 241.9 247.4L241.9 247.4Q241.9 249.0 241.1 250.1Q240.3 251.3 238.7 252.0Q237.2 252.6 235.1 252.6L235.1 252.6Q233.0 252.6 231.4 251.9Q229.9 251.3 229.0 250.0Q228.1 248.8 228.1 246.9L228.1 246.9L231.6 246.9Q231.7 247.7 232.2 248.3Q232.6 248.9 233.4 249.2Q234.1 249.5 235.1 249.5L235.1 249.5Q236.0 249.5 236.7 249.2Q237.4 249.0 237.8 248.5Q238.2 248.0 238.2 247.4L238.2 247.4Q238.2 246.8 237.8 246.4Q237.5 246.0 236.8 245.7Q236.1 245.4 235.2 245.2L235.2 245.2L233.3 244.7Q231.1 244.2 229.8 243.0Q228.5 241.9 228.5 239.9L228.5 239.9Q228.5 238.4 229.4 237.2Q230.2 236.0 231.7 235.3Q233.2 234.7 235.1 234.7L235.1 234.7Q237.1 234.7 238.5 235.3Q240.0 236.0 240.8 237.2Q241.6 238.4 241.6 239.9L241.6 239.9ZM256.5 239.9L252.9 239.9Q252.8 238.9 252.0 238.3Q251.3 237.7 249.9 237.7L249.9 237.7Q249.0 237.7 248.4 238.0Q247.8 238.2 247.5 238.7Q247.1 239.1 247.1 239.7L247.1 239.7Q247.1 240.2 247.3 240.5Q247.5 240.9 247.9 241.1Q248.3 241.4 248.8 241.5Q249.3 241.7 249.9 241.9L249.9 241.9L251.5 242.2Q252.6 242.5 253.6 242.9Q254.5 243.3 255.2 244.0Q255.9 244.6 256.3 245.4Q256.7 246.3 256.7 247.4L256.7 247.4Q256.7 249.0 255.9 250.1Q255.1 251.3 253.6 252.0Q252.0 252.6 249.9 252.6L249.9 252.6Q247.8 252.6 246.2 251.9Q244.7 251.3 243.8 250.0Q242.9 248.8 242.9 246.9L242.9 246.9L246.5 246.9Q246.5 247.7 247.0 248.3Q247.4 248.9 248.2 249.2Q248.9 249.5 249.9 249.5L249.9 249.5Q250.8 249.5 251.5 249.2Q252.2 249.0 252.6 248.5Q253.0 248.0 253.0 247.4L253.0 247.4Q253.0 246.8 252.6 246.4Q252.3 246.0 251.6 245.7Q251.0 245.4 250.0 245.2L250.0 245.2L248.1 244.7Q245.9 244.2 244.6 243.0Q243.3 241.9 243.3 239.9L243.3 239.9Q243.3 238.4 244.2 237.2Q245.1 236.0 246.6 235.3Q248.1 234.7 250.0 234.7L250.0 234.7Q251.9 234.7 253.4 235.3Q254.8 236.0 255.6 237.2Q256.4 238.4 256.5 239.9L256.5 239.9ZM259.1 250.0L262.1 250.0L262.1 250.9Q261.9 252.0 261.6 253.1Q261.3 254.3 261.0 255.2Q260.6 256.1 260.4 256.6L260.4 256.6L258.1 256.6Q258.2 256.1 258.4 255.2Q258.7 254.3 258.9 253.2Q259.1 252.1 259.1 250.9L259.1 250.9L259.1 250.0Z M274.7 252.6L274.7 252.6Q273.5 252.6 272.5 252.2Q271.5 251.7 271.0 250.9Q270.4 250.0 270.4 248.7L270.4 248.7Q270.4 247.6 270.8 246.9Q271.2 246.1 271.9 245.7Q272.6 245.2 273.5 245.0Q274.3 244.8 275.3 244.7L275.3 244.7Q276.5 244.5 277.2 244.4Q277.8 244.3 278.2 244.1Q278.5 243.9 278.5 243.5L278.5 243.5L278.5 243.4Q278.5 242.6 278.0 242.2Q277.5 241.7 276.5 241.7L276.5 241.7Q275.6 241.7 275.0 242.2Q274.4 242.6 274.2 243.2L274.2 243.2L270.9 243.0Q271.1 241.8 271.9 240.9Q272.6 240.0 273.8 239.6Q275.0 239.1 276.6 239.1L276.6 239.1Q277.6 239.1 278.6 239.3Q279.6 239.6 280.4 240.1Q281.2 240.7 281.7 241.5Q282.1 242.4 282.1 243.5L282.1 243.5L282.1 252.4L278.7 252.4L278.7 250.5L278.6 250.5Q278.3 251.1 277.7 251.6Q277.2 252.1 276.5 252.3Q275.7 252.6 274.7 252.6ZM275.8 250.1L275.8 250.1Q276.6 250.1 277.2 249.8Q277.8 249.5 278.2 248.9Q278.5 248.4 278.5 247.7L278.5 247.7L278.5 246.3Q278.3 246.4 278.0 246.5Q277.7 246.6 277.4 246.6Q277.0 246.7 276.6 246.8Q276.3 246.8 276.0 246.9L276.0 246.9Q275.3 247.0 274.9 247.2Q274.4 247.4 274.1 247.7Q273.9 248.1 273.9 248.6L273.9 248.6Q273.9 249.3 274.4 249.7Q274.9 250.1 275.8 250.1ZM287.7 244.8L287.7 244.8L287.7 252.4L284.0 252.4L284.0 239.3L287.5 239.3L287.5 241.6L287.6 241.6Q288.1 240.4 289.1 239.8Q290.1 239.1 291.6 239.1L291.6 239.1Q292.9 239.1 294.0 239.7Q295.0 240.3 295.5 241.4Q296.1 242.5 296.1 244.0L296.1 244.0L296.1 252.4L292.5 252.4L292.5 244.7Q292.5 243.5 291.9 242.8Q291.2 242.1 290.1 242.1L290.1 242.1Q289.4 242.1 288.9 242.4Q288.3 242.7 288.0 243.3Q287.7 243.9 287.7 244.8ZM302.9 252.6L302.9 252.6Q301.4 252.6 300.2 251.8Q299.0 251.0 298.3 249.5Q297.6 248.0 297.6 245.8L297.6 245.8Q297.6 243.6 298.3 242.1Q299.0 240.6 300.2 239.8Q301.4 239.1 302.9 239.1L302.9 239.1Q304.0 239.1 304.7 239.5Q305.4 239.8 305.9 240.4Q306.4 240.9 306.6 241.5L306.6 241.5L306.7 241.5L306.7 234.9L310.3 234.9L310.3 252.4L306.7 252.4L306.7 250.3L306.6 250.3Q306.3 250.8 305.9 251.3Q305.4 251.9 304.7 252.2Q303.9 252.6 302.9 252.6ZM304.0 249.7L304.0 249.7Q304.9 249.7 305.5 249.2Q306.1 248.7 306.5 247.8Q306.8 247.0 306.8 245.8L306.8 245.8Q306.8 244.6 306.5 243.8Q306.1 242.9 305.5 242.4Q304.9 242.0 304.0 242.0L304.0 242.0Q303.1 242.0 302.5 242.5Q301.9 242.9 301.6 243.8Q301.3 244.7 301.3 245.8L301.3 245.8Q301.3 246.9 301.6 247.8Q301.9 248.7 302.5 249.2Q303.1 249.7 304.0 249.7Z M317.1 252.4L317.1 234.9L321.7 234.9L326.5 246.6L326.7 246.6L331.5 234.9L336.1 234.9L336.1 252.4L332.5 252.4L332.5 241.0L332.3 241.0L327.8 252.3L325.4 252.3L320.9 240.9L320.7 240.9L320.7 252.4L317.1 252.4ZM344.0 252.6L344.0 252.6Q342.1 252.6 340.6 251.8Q339.2 250.9 338.4 249.4Q337.6 247.9 337.6 245.9L337.6 245.9Q337.6 243.8 338.4 242.3Q339.2 240.8 340.6 239.9Q342.1 239.1 344.0 239.1L344.0 239.1Q346.0 239.1 347.5 239.9Q348.9 240.8 349.7 242.3Q350.5 243.8 350.5 245.9L350.5 245.9Q350.5 247.9 349.7 249.4Q348.9 250.9 347.5 251.8Q346.0 252.6 344.0 252.6ZM344.1 249.8L344.1 249.8Q345.0 249.8 345.6 249.3Q346.2 248.8 346.5 247.9Q346.8 247.0 346.8 245.8L346.8 245.8Q346.8 244.7 346.5 243.8Q346.2 242.9 345.6 242.4Q345.0 241.9 344.1 241.9L344.1 241.9Q343.1 241.9 342.5 242.4Q341.9 242.9 341.6 243.8Q341.3 244.7 341.3 245.8L341.3 245.8Q341.3 247.0 341.6 247.9Q341.9 248.8 342.5 249.3Q343.1 249.8 344.1 249.8ZM355.6 244.8L355.6 244.8L355.6 252.4L351.9 252.4L351.9 239.3L355.4 239.3L355.4 241.6L355.6 241.6Q356.0 240.4 357.0 239.8Q358.0 239.1 359.5 239.1L359.5 239.1Q360.9 239.1 361.9 239.7Q362.9 240.3 363.5 241.4Q364.0 242.5 364.0 244.0L364.0 244.0L364.0 252.4L360.4 252.4L360.4 244.7Q360.4 243.5 359.8 242.8Q359.2 242.1 358.1 242.1L358.1 242.1Q357.3 242.1 356.8 242.4Q356.2 242.7 355.9 243.3Q355.6 243.9 355.6 244.8ZM371.9 257.5L371.9 257.5Q370.1 257.5 368.8 257.1Q367.6 256.6 366.9 255.7Q366.1 254.9 365.9 253.9L365.9 253.9L369.2 253.4Q369.4 253.8 369.7 254.2Q370.1 254.5 370.6 254.7Q371.2 254.9 372.0 254.9L372.0 254.9Q373.1 254.9 373.9 254.3Q374.7 253.8 374.7 252.4L374.7 252.4L374.7 250.0L374.5 250.0Q374.3 250.6 373.8 251.1Q373.3 251.5 372.6 251.9Q371.8 252.2 370.8 252.2L370.8 252.2Q369.3 252.2 368.1 251.5Q366.9 250.8 366.2 249.4Q365.5 248.0 365.5 245.8L365.5 245.8Q365.5 243.6 366.2 242.1Q366.9 240.6 368.1 239.8Q369.3 239.1 370.8 239.1L370.8 239.1Q371.9 239.1 372.6 239.5Q373.4 239.8 373.8 240.4Q374.3 240.9 374.5 241.5L374.5 241.5L374.7 241.5L374.7 239.3L378.3 239.3L378.3 252.5Q378.3 254.1 377.5 255.3Q376.6 256.4 375.2 257.0Q373.7 257.5 371.9 257.5ZM371.9 249.4L371.9 249.4Q372.8 249.4 373.4 249.0Q374.0 248.6 374.4 247.7Q374.7 246.9 374.7 245.8L374.7 245.8Q374.7 244.6 374.4 243.8Q374.1 242.9 373.4 242.4Q372.8 242.0 371.9 242.0L371.9 242.0Q371.1 242.0 370.4 242.5Q369.8 242.9 369.5 243.8Q369.2 244.6 369.2 245.8L369.2 245.8Q369.2 246.9 369.5 247.7Q369.8 248.5 370.4 249.0Q371.1 249.4 371.9 249.4ZM386.2 252.6L386.2 252.6Q384.2 252.6 382.8 251.8Q381.3 250.9 380.5 249.4Q379.7 247.9 379.7 245.9L379.7 245.9Q379.7 243.8 380.5 242.3Q381.3 240.8 382.8 239.9Q384.2 239.1 386.2 239.1L386.2 239.1Q388.2 239.1 389.6 239.9Q391.1 240.8 391.8 242.3Q392.6 243.8 392.6 245.9L392.6 245.9Q392.6 247.9 391.8 249.4Q391.1 250.9 389.6 251.8Q388.2 252.6 386.2 252.6ZM386.2 249.8L386.2 249.8Q387.1 249.8 387.7 249.3Q388.3 248.8 388.6 247.9Q388.9 247.0 388.9 245.8L388.9 245.8Q388.9 244.7 388.6 243.8Q388.3 242.9 387.7 242.4Q387.1 241.9 386.2 241.9L386.2 241.9Q385.3 241.9 384.7 242.4Q384.1 242.9 383.7 243.8Q383.4 244.7 383.4 245.8L383.4 245.8Q383.4 247.0 383.7 247.9Q384.1 248.8 384.7 249.3Q385.3 249.8 386.2 249.8ZM400.4 252.4L400.4 252.4L394.2 252.4L394.2 234.9L400.4 234.9Q403.0 234.9 404.9 235.9Q406.8 237.0 407.9 238.9Q408.9 240.9 408.9 243.6L408.9 243.6Q408.9 246.3 407.9 248.3Q406.8 250.3 404.9 251.3Q403.0 252.4 400.4 252.4ZM397.9 238.1L397.9 249.2L400.2 249.2Q401.8 249.2 403.0 248.6Q404.1 248.0 404.6 246.8Q405.2 245.6 405.2 243.6L405.2 243.6Q405.2 241.7 404.6 240.4Q404.1 239.2 403.0 238.6Q401.8 238.1 400.2 238.1L400.2 238.1L397.9 238.1ZM418.2 252.4L410.7 252.4L410.7 234.9L417.7 234.9Q419.6 234.9 420.9 235.5Q422.2 236.0 422.9 237.0Q423.5 238.1 423.5 239.4L423.5 239.4Q423.5 240.4 423.1 241.2Q422.7 241.9 422.0 242.4Q421.3 242.9 420.4 243.1L420.4 243.1L420.4 243.3Q421.3 243.3 422.2 243.9Q423.1 244.4 423.6 245.3Q424.2 246.2 424.2 247.5L424.2 247.5Q424.2 248.9 423.5 250.0Q422.8 251.1 421.5 251.7Q420.1 252.4 418.2 252.4L418.2 252.4ZM414.4 244.7L414.4 249.3L417.4 249.3Q419.0 249.3 419.7 248.7Q420.4 248.1 420.4 247.2L420.4 247.2Q420.4 246.4 420.0 245.9Q419.7 245.3 419.0 245.0Q418.4 244.7 417.5 244.7L417.5 244.7L414.4 244.7ZM414.4 237.9L414.4 242.2L417.1 242.2Q417.9 242.2 418.5 241.9Q419.1 241.7 419.4 241.2Q419.8 240.7 419.8 240.0L419.8 240.0Q419.8 239.0 419.1 238.5Q418.4 237.9 417.2 237.9L417.2 237.9L414.4 237.9ZM427.7 252.6L427.7 252.6Q426.9 252.6 426.3 252.0Q425.7 251.4 425.7 250.5L425.7 250.5Q425.7 249.7 426.3 249.1Q426.9 248.5 427.7 248.5L427.7 248.5Q428.6 248.5 429.2 249.1Q429.8 249.7 429.8 250.5L429.8 250.5Q429.8 251.1 429.5 251.6Q429.2 252.0 428.7 252.3Q428.3 252.6 427.7 252.6Z "/></svg>